%TF.GenerationSoftware,KiCad,Pcbnew,10.0.4*%
%TF.CreationDate,2026-09-17T18:30:33+05:30*%
%TF.ProjectId,esp32c3-breakout,65737033-3263-4332-9d62-7265616b6f75,rev?*%
%TF.SameCoordinates,Original*%
%TF.FileFunction,AssemblyDrawing,Top*%
%FSLAX46Y46*%
G04 Gerber Fmt 4.6, Leading zero omitted, Abs format (unit mm)*
G04 Created by KiCad (PCBNEW 10.0.4) date 2026-09-17 18:30:33*
%MOMM*%
%LPD*%
G01*
G04 APERTURE LIST*
%ADD10C,0.150000*%
%ADD11C,0.100000*%
G04 APERTURE END LIST*
D10*
X19282819Y-8515238D02*
X19282819Y-9086666D01*
X19282819Y-8800952D02*
X18282819Y-8800952D01*
X18282819Y-8800952D02*
X18425676Y-8896190D01*
X18425676Y-8896190D02*
X18520914Y-8991428D01*
X18520914Y-8991428D02*
X18568533Y-9086666D01*
X18282819Y-7896190D02*
X18282819Y-7800952D01*
X18282819Y-7800952D02*
X18330438Y-7705714D01*
X18330438Y-7705714D02*
X18378057Y-7658095D01*
X18378057Y-7658095D02*
X18473295Y-7610476D01*
X18473295Y-7610476D02*
X18663771Y-7562857D01*
X18663771Y-7562857D02*
X18901866Y-7562857D01*
X18901866Y-7562857D02*
X19092342Y-7610476D01*
X19092342Y-7610476D02*
X19187580Y-7658095D01*
X19187580Y-7658095D02*
X19235200Y-7705714D01*
X19235200Y-7705714D02*
X19282819Y-7800952D01*
X19282819Y-7800952D02*
X19282819Y-7896190D01*
X19282819Y-7896190D02*
X19235200Y-7991428D01*
X19235200Y-7991428D02*
X19187580Y-8039047D01*
X19187580Y-8039047D02*
X19092342Y-8086666D01*
X19092342Y-8086666D02*
X18901866Y-8134285D01*
X18901866Y-8134285D02*
X18663771Y-8134285D01*
X18663771Y-8134285D02*
X18473295Y-8086666D01*
X18473295Y-8086666D02*
X18378057Y-8039047D01*
X18378057Y-8039047D02*
X18330438Y-7991428D01*
X18330438Y-7991428D02*
X18282819Y-7896190D01*
X19282819Y-7134285D02*
X18282819Y-7134285D01*
X18901866Y-7039047D02*
X19282819Y-6753333D01*
X18616152Y-6753333D02*
X18997104Y-7134285D01*
X16912819Y-8086666D02*
X16436628Y-8419999D01*
X16912819Y-8658094D02*
X15912819Y-8658094D01*
X15912819Y-8658094D02*
X15912819Y-8277142D01*
X15912819Y-8277142D02*
X15960438Y-8181904D01*
X15960438Y-8181904D02*
X16008057Y-8134285D01*
X16008057Y-8134285D02*
X16103295Y-8086666D01*
X16103295Y-8086666D02*
X16246152Y-8086666D01*
X16246152Y-8086666D02*
X16341390Y-8134285D01*
X16341390Y-8134285D02*
X16389009Y-8181904D01*
X16389009Y-8181904D02*
X16436628Y-8277142D01*
X16436628Y-8277142D02*
X16436628Y-8658094D01*
X16912819Y-7134285D02*
X16912819Y-7705713D01*
X16912819Y-7419999D02*
X15912819Y-7419999D01*
X15912819Y-7419999D02*
X16055676Y-7515237D01*
X16055676Y-7515237D02*
X16150914Y-7610475D01*
X16150914Y-7610475D02*
X16198533Y-7705713D01*
X9084380Y-24517819D02*
X8512952Y-24517819D01*
X8798666Y-24517819D02*
X8798666Y-23517819D01*
X8798666Y-23517819D02*
X8703428Y-23660676D01*
X8703428Y-23660676D02*
X8608190Y-23755914D01*
X8608190Y-23755914D02*
X8512952Y-23803533D01*
X9703428Y-23517819D02*
X9798666Y-23517819D01*
X9798666Y-23517819D02*
X9893904Y-23565438D01*
X9893904Y-23565438D02*
X9941523Y-23613057D01*
X9941523Y-23613057D02*
X9989142Y-23708295D01*
X9989142Y-23708295D02*
X10036761Y-23898771D01*
X10036761Y-23898771D02*
X10036761Y-24136866D01*
X10036761Y-24136866D02*
X9989142Y-24327342D01*
X9989142Y-24327342D02*
X9941523Y-24422580D01*
X9941523Y-24422580D02*
X9893904Y-24470200D01*
X9893904Y-24470200D02*
X9798666Y-24517819D01*
X9798666Y-24517819D02*
X9703428Y-24517819D01*
X9703428Y-24517819D02*
X9608190Y-24470200D01*
X9608190Y-24470200D02*
X9560571Y-24422580D01*
X9560571Y-24422580D02*
X9512952Y-24327342D01*
X9512952Y-24327342D02*
X9465333Y-24136866D01*
X9465333Y-24136866D02*
X9465333Y-23898771D01*
X9465333Y-23898771D02*
X9512952Y-23708295D01*
X9512952Y-23708295D02*
X9560571Y-23613057D01*
X9560571Y-23613057D02*
X9608190Y-23565438D01*
X9608190Y-23565438D02*
X9703428Y-23517819D01*
X10655809Y-23517819D02*
X10751047Y-23517819D01*
X10751047Y-23517819D02*
X10846285Y-23565438D01*
X10846285Y-23565438D02*
X10893904Y-23613057D01*
X10893904Y-23613057D02*
X10941523Y-23708295D01*
X10941523Y-23708295D02*
X10989142Y-23898771D01*
X10989142Y-23898771D02*
X10989142Y-24136866D01*
X10989142Y-24136866D02*
X10941523Y-24327342D01*
X10941523Y-24327342D02*
X10893904Y-24422580D01*
X10893904Y-24422580D02*
X10846285Y-24470200D01*
X10846285Y-24470200D02*
X10751047Y-24517819D01*
X10751047Y-24517819D02*
X10655809Y-24517819D01*
X10655809Y-24517819D02*
X10560571Y-24470200D01*
X10560571Y-24470200D02*
X10512952Y-24422580D01*
X10512952Y-24422580D02*
X10465333Y-24327342D01*
X10465333Y-24327342D02*
X10417714Y-24136866D01*
X10417714Y-24136866D02*
X10417714Y-23898771D01*
X10417714Y-23898771D02*
X10465333Y-23708295D01*
X10465333Y-23708295D02*
X10512952Y-23613057D01*
X10512952Y-23613057D02*
X10560571Y-23565438D01*
X10560571Y-23565438D02*
X10655809Y-23517819D01*
X11417714Y-23851152D02*
X11417714Y-24517819D01*
X11417714Y-23946390D02*
X11465333Y-23898771D01*
X11465333Y-23898771D02*
X11560571Y-23851152D01*
X11560571Y-23851152D02*
X11703428Y-23851152D01*
X11703428Y-23851152D02*
X11798666Y-23898771D01*
X11798666Y-23898771D02*
X11846285Y-23994009D01*
X11846285Y-23994009D02*
X11846285Y-24517819D01*
X12655809Y-23994009D02*
X12322476Y-23994009D01*
X12322476Y-24517819D02*
X12322476Y-23517819D01*
X12322476Y-23517819D02*
X12798666Y-23517819D01*
X10465333Y-21922580D02*
X10417714Y-21970200D01*
X10417714Y-21970200D02*
X10274857Y-22017819D01*
X10274857Y-22017819D02*
X10179619Y-22017819D01*
X10179619Y-22017819D02*
X10036762Y-21970200D01*
X10036762Y-21970200D02*
X9941524Y-21874961D01*
X9941524Y-21874961D02*
X9893905Y-21779723D01*
X9893905Y-21779723D02*
X9846286Y-21589247D01*
X9846286Y-21589247D02*
X9846286Y-21446390D01*
X9846286Y-21446390D02*
X9893905Y-21255914D01*
X9893905Y-21255914D02*
X9941524Y-21160676D01*
X9941524Y-21160676D02*
X10036762Y-21065438D01*
X10036762Y-21065438D02*
X10179619Y-21017819D01*
X10179619Y-21017819D02*
X10274857Y-21017819D01*
X10274857Y-21017819D02*
X10417714Y-21065438D01*
X10417714Y-21065438D02*
X10465333Y-21113057D01*
X11417714Y-22017819D02*
X10846286Y-22017819D01*
X11132000Y-22017819D02*
X11132000Y-21017819D01*
X11132000Y-21017819D02*
X11036762Y-21160676D01*
X11036762Y-21160676D02*
X10941524Y-21255914D01*
X10941524Y-21255914D02*
X10846286Y-21303533D01*
X3054819Y-36773381D02*
X2578628Y-37106714D01*
X3054819Y-37344809D02*
X2054819Y-37344809D01*
X2054819Y-37344809D02*
X2054819Y-36963857D01*
X2054819Y-36963857D02*
X2102438Y-36868619D01*
X2102438Y-36868619D02*
X2150057Y-36821000D01*
X2150057Y-36821000D02*
X2245295Y-36773381D01*
X2245295Y-36773381D02*
X2388152Y-36773381D01*
X2388152Y-36773381D02*
X2483390Y-36821000D01*
X2483390Y-36821000D02*
X2531009Y-36868619D01*
X2531009Y-36868619D02*
X2578628Y-36963857D01*
X2578628Y-36963857D02*
X2578628Y-37344809D01*
X2531009Y-36344809D02*
X2531009Y-36011476D01*
X3054819Y-35868619D02*
X3054819Y-36344809D01*
X3054819Y-36344809D02*
X2054819Y-36344809D01*
X2054819Y-36344809D02*
X2054819Y-35868619D01*
X3007200Y-35487666D02*
X3054819Y-35344809D01*
X3054819Y-35344809D02*
X3054819Y-35106714D01*
X3054819Y-35106714D02*
X3007200Y-35011476D01*
X3007200Y-35011476D02*
X2959580Y-34963857D01*
X2959580Y-34963857D02*
X2864342Y-34916238D01*
X2864342Y-34916238D02*
X2769104Y-34916238D01*
X2769104Y-34916238D02*
X2673866Y-34963857D01*
X2673866Y-34963857D02*
X2626247Y-35011476D01*
X2626247Y-35011476D02*
X2578628Y-35106714D01*
X2578628Y-35106714D02*
X2531009Y-35297190D01*
X2531009Y-35297190D02*
X2483390Y-35392428D01*
X2483390Y-35392428D02*
X2435771Y-35440047D01*
X2435771Y-35440047D02*
X2340533Y-35487666D01*
X2340533Y-35487666D02*
X2245295Y-35487666D01*
X2245295Y-35487666D02*
X2150057Y-35440047D01*
X2150057Y-35440047D02*
X2102438Y-35392428D01*
X2102438Y-35392428D02*
X2054819Y-35297190D01*
X2054819Y-35297190D02*
X2054819Y-35059095D01*
X2054819Y-35059095D02*
X2102438Y-34916238D01*
X2531009Y-34487666D02*
X2531009Y-34154333D01*
X3054819Y-34011476D02*
X3054819Y-34487666D01*
X3054819Y-34487666D02*
X2054819Y-34487666D01*
X2054819Y-34487666D02*
X2054819Y-34011476D01*
X2054819Y-33725761D02*
X2054819Y-33154333D01*
X3054819Y-33440047D02*
X2054819Y-33440047D01*
X7457200Y-36154332D02*
X7504819Y-36011475D01*
X7504819Y-36011475D02*
X7504819Y-35773380D01*
X7504819Y-35773380D02*
X7457200Y-35678142D01*
X7457200Y-35678142D02*
X7409580Y-35630523D01*
X7409580Y-35630523D02*
X7314342Y-35582904D01*
X7314342Y-35582904D02*
X7219104Y-35582904D01*
X7219104Y-35582904D02*
X7123866Y-35630523D01*
X7123866Y-35630523D02*
X7076247Y-35678142D01*
X7076247Y-35678142D02*
X7028628Y-35773380D01*
X7028628Y-35773380D02*
X6981009Y-35963856D01*
X6981009Y-35963856D02*
X6933390Y-36059094D01*
X6933390Y-36059094D02*
X6885771Y-36106713D01*
X6885771Y-36106713D02*
X6790533Y-36154332D01*
X6790533Y-36154332D02*
X6695295Y-36154332D01*
X6695295Y-36154332D02*
X6600057Y-36106713D01*
X6600057Y-36106713D02*
X6552438Y-36059094D01*
X6552438Y-36059094D02*
X6504819Y-35963856D01*
X6504819Y-35963856D02*
X6504819Y-35725761D01*
X6504819Y-35725761D02*
X6552438Y-35582904D01*
X6504819Y-35249570D02*
X7504819Y-35011475D01*
X7504819Y-35011475D02*
X6790533Y-34820999D01*
X6790533Y-34820999D02*
X7504819Y-34630523D01*
X7504819Y-34630523D02*
X6504819Y-34392428D01*
X7504819Y-33487666D02*
X7504819Y-34059094D01*
X7504819Y-33773380D02*
X6504819Y-33773380D01*
X6504819Y-33773380D02*
X6647676Y-33868618D01*
X6647676Y-33868618D02*
X6742914Y-33963856D01*
X6742914Y-33963856D02*
X6790533Y-34059094D01*
X4454819Y-19231237D02*
X5264342Y-19231237D01*
X5264342Y-19231237D02*
X5359580Y-19183618D01*
X5359580Y-19183618D02*
X5407200Y-19135999D01*
X5407200Y-19135999D02*
X5454819Y-19040761D01*
X5454819Y-19040761D02*
X5454819Y-18850285D01*
X5454819Y-18850285D02*
X5407200Y-18755047D01*
X5407200Y-18755047D02*
X5359580Y-18707428D01*
X5359580Y-18707428D02*
X5264342Y-18659809D01*
X5264342Y-18659809D02*
X4454819Y-18659809D01*
X5169104Y-18231237D02*
X5169104Y-17755047D01*
X5454819Y-18326475D02*
X4454819Y-17993142D01*
X4454819Y-17993142D02*
X5454819Y-17659809D01*
X5454819Y-16755047D02*
X4978628Y-17088380D01*
X5454819Y-17326475D02*
X4454819Y-17326475D01*
X4454819Y-17326475D02*
X4454819Y-16945523D01*
X4454819Y-16945523D02*
X4502438Y-16850285D01*
X4502438Y-16850285D02*
X4550057Y-16802666D01*
X4550057Y-16802666D02*
X4645295Y-16755047D01*
X4645295Y-16755047D02*
X4788152Y-16755047D01*
X4788152Y-16755047D02*
X4883390Y-16802666D01*
X4883390Y-16802666D02*
X4931009Y-16850285D01*
X4931009Y-16850285D02*
X4978628Y-16945523D01*
X4978628Y-16945523D02*
X4978628Y-17326475D01*
X4454819Y-16469332D02*
X4454819Y-15897904D01*
X5454819Y-16183618D02*
X4454819Y-16183618D01*
X10856666Y-17090819D02*
X10856666Y-17805104D01*
X10856666Y-17805104D02*
X10809047Y-17947961D01*
X10809047Y-17947961D02*
X10713809Y-18043200D01*
X10713809Y-18043200D02*
X10570952Y-18090819D01*
X10570952Y-18090819D02*
X10475714Y-18090819D01*
X11856666Y-18090819D02*
X11285238Y-18090819D01*
X11570952Y-18090819D02*
X11570952Y-17090819D01*
X11570952Y-17090819D02*
X11475714Y-17233676D01*
X11475714Y-17233676D02*
X11380476Y-17328914D01*
X11380476Y-17328914D02*
X11285238Y-17376533D01*
X23978953Y-30431009D02*
X24312286Y-30431009D01*
X24455143Y-30954819D02*
X23978953Y-30954819D01*
X23978953Y-30954819D02*
X23978953Y-29954819D01*
X23978953Y-29954819D02*
X24455143Y-29954819D01*
X24836096Y-30907200D02*
X24978953Y-30954819D01*
X24978953Y-30954819D02*
X25217048Y-30954819D01*
X25217048Y-30954819D02*
X25312286Y-30907200D01*
X25312286Y-30907200D02*
X25359905Y-30859580D01*
X25359905Y-30859580D02*
X25407524Y-30764342D01*
X25407524Y-30764342D02*
X25407524Y-30669104D01*
X25407524Y-30669104D02*
X25359905Y-30573866D01*
X25359905Y-30573866D02*
X25312286Y-30526247D01*
X25312286Y-30526247D02*
X25217048Y-30478628D01*
X25217048Y-30478628D02*
X25026572Y-30431009D01*
X25026572Y-30431009D02*
X24931334Y-30383390D01*
X24931334Y-30383390D02*
X24883715Y-30335771D01*
X24883715Y-30335771D02*
X24836096Y-30240533D01*
X24836096Y-30240533D02*
X24836096Y-30145295D01*
X24836096Y-30145295D02*
X24883715Y-30050057D01*
X24883715Y-30050057D02*
X24931334Y-30002438D01*
X24931334Y-30002438D02*
X25026572Y-29954819D01*
X25026572Y-29954819D02*
X25264667Y-29954819D01*
X25264667Y-29954819D02*
X25407524Y-30002438D01*
X25836096Y-30954819D02*
X25836096Y-29954819D01*
X25836096Y-29954819D02*
X26217048Y-29954819D01*
X26217048Y-29954819D02*
X26312286Y-30002438D01*
X26312286Y-30002438D02*
X26359905Y-30050057D01*
X26359905Y-30050057D02*
X26407524Y-30145295D01*
X26407524Y-30145295D02*
X26407524Y-30288152D01*
X26407524Y-30288152D02*
X26359905Y-30383390D01*
X26359905Y-30383390D02*
X26312286Y-30431009D01*
X26312286Y-30431009D02*
X26217048Y-30478628D01*
X26217048Y-30478628D02*
X25836096Y-30478628D01*
X26740858Y-29954819D02*
X27359905Y-29954819D01*
X27359905Y-29954819D02*
X27026572Y-30335771D01*
X27026572Y-30335771D02*
X27169429Y-30335771D01*
X27169429Y-30335771D02*
X27264667Y-30383390D01*
X27264667Y-30383390D02*
X27312286Y-30431009D01*
X27312286Y-30431009D02*
X27359905Y-30526247D01*
X27359905Y-30526247D02*
X27359905Y-30764342D01*
X27359905Y-30764342D02*
X27312286Y-30859580D01*
X27312286Y-30859580D02*
X27264667Y-30907200D01*
X27264667Y-30907200D02*
X27169429Y-30954819D01*
X27169429Y-30954819D02*
X26883715Y-30954819D01*
X26883715Y-30954819D02*
X26788477Y-30907200D01*
X26788477Y-30907200D02*
X26740858Y-30859580D01*
X27740858Y-30050057D02*
X27788477Y-30002438D01*
X27788477Y-30002438D02*
X27883715Y-29954819D01*
X27883715Y-29954819D02*
X28121810Y-29954819D01*
X28121810Y-29954819D02*
X28217048Y-30002438D01*
X28217048Y-30002438D02*
X28264667Y-30050057D01*
X28264667Y-30050057D02*
X28312286Y-30145295D01*
X28312286Y-30145295D02*
X28312286Y-30240533D01*
X28312286Y-30240533D02*
X28264667Y-30383390D01*
X28264667Y-30383390D02*
X27693239Y-30954819D01*
X27693239Y-30954819D02*
X28312286Y-30954819D01*
X28740858Y-30573866D02*
X29502763Y-30573866D01*
X30550381Y-30859580D02*
X30502762Y-30907200D01*
X30502762Y-30907200D02*
X30359905Y-30954819D01*
X30359905Y-30954819D02*
X30264667Y-30954819D01*
X30264667Y-30954819D02*
X30121810Y-30907200D01*
X30121810Y-30907200D02*
X30026572Y-30811961D01*
X30026572Y-30811961D02*
X29978953Y-30716723D01*
X29978953Y-30716723D02*
X29931334Y-30526247D01*
X29931334Y-30526247D02*
X29931334Y-30383390D01*
X29931334Y-30383390D02*
X29978953Y-30192914D01*
X29978953Y-30192914D02*
X30026572Y-30097676D01*
X30026572Y-30097676D02*
X30121810Y-30002438D01*
X30121810Y-30002438D02*
X30264667Y-29954819D01*
X30264667Y-29954819D02*
X30359905Y-29954819D01*
X30359905Y-29954819D02*
X30502762Y-30002438D01*
X30502762Y-30002438D02*
X30550381Y-30050057D01*
X30883715Y-29954819D02*
X31502762Y-29954819D01*
X31502762Y-29954819D02*
X31169429Y-30335771D01*
X31169429Y-30335771D02*
X31312286Y-30335771D01*
X31312286Y-30335771D02*
X31407524Y-30383390D01*
X31407524Y-30383390D02*
X31455143Y-30431009D01*
X31455143Y-30431009D02*
X31502762Y-30526247D01*
X31502762Y-30526247D02*
X31502762Y-30764342D01*
X31502762Y-30764342D02*
X31455143Y-30859580D01*
X31455143Y-30859580D02*
X31407524Y-30907200D01*
X31407524Y-30907200D02*
X31312286Y-30954819D01*
X31312286Y-30954819D02*
X31026572Y-30954819D01*
X31026572Y-30954819D02*
X30931334Y-30907200D01*
X30931334Y-30907200D02*
X30883715Y-30859580D01*
X31931334Y-30573866D02*
X32693239Y-30573866D01*
X33074191Y-29954819D02*
X33312286Y-30954819D01*
X33312286Y-30954819D02*
X33502762Y-30240533D01*
X33502762Y-30240533D02*
X33693238Y-30954819D01*
X33693238Y-30954819D02*
X33931334Y-29954819D01*
X34883714Y-30954819D02*
X34550381Y-30478628D01*
X34312286Y-30954819D02*
X34312286Y-29954819D01*
X34312286Y-29954819D02*
X34693238Y-29954819D01*
X34693238Y-29954819D02*
X34788476Y-30002438D01*
X34788476Y-30002438D02*
X34836095Y-30050057D01*
X34836095Y-30050057D02*
X34883714Y-30145295D01*
X34883714Y-30145295D02*
X34883714Y-30288152D01*
X34883714Y-30288152D02*
X34836095Y-30383390D01*
X34836095Y-30383390D02*
X34788476Y-30431009D01*
X34788476Y-30431009D02*
X34693238Y-30478628D01*
X34693238Y-30478628D02*
X34312286Y-30478628D01*
X35502762Y-29954819D02*
X35693238Y-29954819D01*
X35693238Y-29954819D02*
X35788476Y-30002438D01*
X35788476Y-30002438D02*
X35883714Y-30097676D01*
X35883714Y-30097676D02*
X35931333Y-30288152D01*
X35931333Y-30288152D02*
X35931333Y-30621485D01*
X35931333Y-30621485D02*
X35883714Y-30811961D01*
X35883714Y-30811961D02*
X35788476Y-30907200D01*
X35788476Y-30907200D02*
X35693238Y-30954819D01*
X35693238Y-30954819D02*
X35502762Y-30954819D01*
X35502762Y-30954819D02*
X35407524Y-30907200D01*
X35407524Y-30907200D02*
X35312286Y-30811961D01*
X35312286Y-30811961D02*
X35264667Y-30621485D01*
X35264667Y-30621485D02*
X35264667Y-30288152D01*
X35264667Y-30288152D02*
X35312286Y-30097676D01*
X35312286Y-30097676D02*
X35407524Y-30002438D01*
X35407524Y-30002438D02*
X35502762Y-29954819D01*
X36550381Y-29954819D02*
X36740857Y-29954819D01*
X36740857Y-29954819D02*
X36836095Y-30002438D01*
X36836095Y-30002438D02*
X36931333Y-30097676D01*
X36931333Y-30097676D02*
X36978952Y-30288152D01*
X36978952Y-30288152D02*
X36978952Y-30621485D01*
X36978952Y-30621485D02*
X36931333Y-30811961D01*
X36931333Y-30811961D02*
X36836095Y-30907200D01*
X36836095Y-30907200D02*
X36740857Y-30954819D01*
X36740857Y-30954819D02*
X36550381Y-30954819D01*
X36550381Y-30954819D02*
X36455143Y-30907200D01*
X36455143Y-30907200D02*
X36359905Y-30811961D01*
X36359905Y-30811961D02*
X36312286Y-30621485D01*
X36312286Y-30621485D02*
X36312286Y-30288152D01*
X36312286Y-30288152D02*
X36359905Y-30097676D01*
X36359905Y-30097676D02*
X36455143Y-30002438D01*
X36455143Y-30002438D02*
X36550381Y-29954819D01*
X37407524Y-30954819D02*
X37407524Y-29954819D01*
X37407524Y-29954819D02*
X37740857Y-30669104D01*
X37740857Y-30669104D02*
X38074190Y-29954819D01*
X38074190Y-29954819D02*
X38074190Y-30954819D01*
X38550381Y-30573866D02*
X39312286Y-30573866D01*
X39978952Y-29954819D02*
X40074190Y-29954819D01*
X40074190Y-29954819D02*
X40169428Y-30002438D01*
X40169428Y-30002438D02*
X40217047Y-30050057D01*
X40217047Y-30050057D02*
X40264666Y-30145295D01*
X40264666Y-30145295D02*
X40312285Y-30335771D01*
X40312285Y-30335771D02*
X40312285Y-30573866D01*
X40312285Y-30573866D02*
X40264666Y-30764342D01*
X40264666Y-30764342D02*
X40217047Y-30859580D01*
X40217047Y-30859580D02*
X40169428Y-30907200D01*
X40169428Y-30907200D02*
X40074190Y-30954819D01*
X40074190Y-30954819D02*
X39978952Y-30954819D01*
X39978952Y-30954819D02*
X39883714Y-30907200D01*
X39883714Y-30907200D02*
X39836095Y-30859580D01*
X39836095Y-30859580D02*
X39788476Y-30764342D01*
X39788476Y-30764342D02*
X39740857Y-30573866D01*
X39740857Y-30573866D02*
X39740857Y-30335771D01*
X39740857Y-30335771D02*
X39788476Y-30145295D01*
X39788476Y-30145295D02*
X39836095Y-30050057D01*
X39836095Y-30050057D02*
X39883714Y-30002438D01*
X39883714Y-30002438D02*
X39978952Y-29954819D01*
X40693238Y-30050057D02*
X40740857Y-30002438D01*
X40740857Y-30002438D02*
X40836095Y-29954819D01*
X40836095Y-29954819D02*
X41074190Y-29954819D01*
X41074190Y-29954819D02*
X41169428Y-30002438D01*
X41169428Y-30002438D02*
X41217047Y-30050057D01*
X41217047Y-30050057D02*
X41264666Y-30145295D01*
X41264666Y-30145295D02*
X41264666Y-30240533D01*
X41264666Y-30240533D02*
X41217047Y-30383390D01*
X41217047Y-30383390D02*
X40645619Y-30954819D01*
X40645619Y-30954819D02*
X41264666Y-30954819D01*
X31836095Y-21954819D02*
X31836095Y-22764342D01*
X31836095Y-22764342D02*
X31883714Y-22859580D01*
X31883714Y-22859580D02*
X31931333Y-22907200D01*
X31931333Y-22907200D02*
X32026571Y-22954819D01*
X32026571Y-22954819D02*
X32217047Y-22954819D01*
X32217047Y-22954819D02*
X32312285Y-22907200D01*
X32312285Y-22907200D02*
X32359904Y-22859580D01*
X32359904Y-22859580D02*
X32407523Y-22764342D01*
X32407523Y-22764342D02*
X32407523Y-21954819D01*
X33407523Y-22954819D02*
X32836095Y-22954819D01*
X33121809Y-22954819D02*
X33121809Y-21954819D01*
X33121809Y-21954819D02*
X33026571Y-22097676D01*
X33026571Y-22097676D02*
X32931333Y-22192914D01*
X32931333Y-22192914D02*
X32836095Y-22240533D01*
X8650857Y-15848009D02*
X8793714Y-15895628D01*
X8793714Y-15895628D02*
X8841333Y-15943247D01*
X8841333Y-15943247D02*
X8888952Y-16038485D01*
X8888952Y-16038485D02*
X8888952Y-16181342D01*
X8888952Y-16181342D02*
X8841333Y-16276580D01*
X8841333Y-16276580D02*
X8793714Y-16324200D01*
X8793714Y-16324200D02*
X8698476Y-16371819D01*
X8698476Y-16371819D02*
X8317524Y-16371819D01*
X8317524Y-16371819D02*
X8317524Y-15371819D01*
X8317524Y-15371819D02*
X8650857Y-15371819D01*
X8650857Y-15371819D02*
X8746095Y-15419438D01*
X8746095Y-15419438D02*
X8793714Y-15467057D01*
X8793714Y-15467057D02*
X8841333Y-15562295D01*
X8841333Y-15562295D02*
X8841333Y-15657533D01*
X8841333Y-15657533D02*
X8793714Y-15752771D01*
X8793714Y-15752771D02*
X8746095Y-15800390D01*
X8746095Y-15800390D02*
X8650857Y-15848009D01*
X8650857Y-15848009D02*
X8317524Y-15848009D01*
X9508000Y-15371819D02*
X9698476Y-15371819D01*
X9698476Y-15371819D02*
X9793714Y-15419438D01*
X9793714Y-15419438D02*
X9888952Y-15514676D01*
X9888952Y-15514676D02*
X9936571Y-15705152D01*
X9936571Y-15705152D02*
X9936571Y-16038485D01*
X9936571Y-16038485D02*
X9888952Y-16228961D01*
X9888952Y-16228961D02*
X9793714Y-16324200D01*
X9793714Y-16324200D02*
X9698476Y-16371819D01*
X9698476Y-16371819D02*
X9508000Y-16371819D01*
X9508000Y-16371819D02*
X9412762Y-16324200D01*
X9412762Y-16324200D02*
X9317524Y-16228961D01*
X9317524Y-16228961D02*
X9269905Y-16038485D01*
X9269905Y-16038485D02*
X9269905Y-15705152D01*
X9269905Y-15705152D02*
X9317524Y-15514676D01*
X9317524Y-15514676D02*
X9412762Y-15419438D01*
X9412762Y-15419438D02*
X9508000Y-15371819D01*
X10555619Y-15371819D02*
X10746095Y-15371819D01*
X10746095Y-15371819D02*
X10841333Y-15419438D01*
X10841333Y-15419438D02*
X10936571Y-15514676D01*
X10936571Y-15514676D02*
X10984190Y-15705152D01*
X10984190Y-15705152D02*
X10984190Y-16038485D01*
X10984190Y-16038485D02*
X10936571Y-16228961D01*
X10936571Y-16228961D02*
X10841333Y-16324200D01*
X10841333Y-16324200D02*
X10746095Y-16371819D01*
X10746095Y-16371819D02*
X10555619Y-16371819D01*
X10555619Y-16371819D02*
X10460381Y-16324200D01*
X10460381Y-16324200D02*
X10365143Y-16228961D01*
X10365143Y-16228961D02*
X10317524Y-16038485D01*
X10317524Y-16038485D02*
X10317524Y-15705152D01*
X10317524Y-15705152D02*
X10365143Y-15514676D01*
X10365143Y-15514676D02*
X10460381Y-15419438D01*
X10460381Y-15419438D02*
X10555619Y-15371819D01*
X11269905Y-15371819D02*
X11841333Y-15371819D01*
X11555619Y-16371819D02*
X11555619Y-15371819D01*
X8174667Y-11874200D02*
X8317524Y-11921819D01*
X8317524Y-11921819D02*
X8555619Y-11921819D01*
X8555619Y-11921819D02*
X8650857Y-11874200D01*
X8650857Y-11874200D02*
X8698476Y-11826580D01*
X8698476Y-11826580D02*
X8746095Y-11731342D01*
X8746095Y-11731342D02*
X8746095Y-11636104D01*
X8746095Y-11636104D02*
X8698476Y-11540866D01*
X8698476Y-11540866D02*
X8650857Y-11493247D01*
X8650857Y-11493247D02*
X8555619Y-11445628D01*
X8555619Y-11445628D02*
X8365143Y-11398009D01*
X8365143Y-11398009D02*
X8269905Y-11350390D01*
X8269905Y-11350390D02*
X8222286Y-11302771D01*
X8222286Y-11302771D02*
X8174667Y-11207533D01*
X8174667Y-11207533D02*
X8174667Y-11112295D01*
X8174667Y-11112295D02*
X8222286Y-11017057D01*
X8222286Y-11017057D02*
X8269905Y-10969438D01*
X8269905Y-10969438D02*
X8365143Y-10921819D01*
X8365143Y-10921819D02*
X8603238Y-10921819D01*
X8603238Y-10921819D02*
X8746095Y-10969438D01*
X9079429Y-10921819D02*
X9317524Y-11921819D01*
X9317524Y-11921819D02*
X9508000Y-11207533D01*
X9508000Y-11207533D02*
X9698476Y-11921819D01*
X9698476Y-11921819D02*
X9936572Y-10921819D01*
X10269905Y-11017057D02*
X10317524Y-10969438D01*
X10317524Y-10969438D02*
X10412762Y-10921819D01*
X10412762Y-10921819D02*
X10650857Y-10921819D01*
X10650857Y-10921819D02*
X10746095Y-10969438D01*
X10746095Y-10969438D02*
X10793714Y-11017057D01*
X10793714Y-11017057D02*
X10841333Y-11112295D01*
X10841333Y-11112295D02*
X10841333Y-11207533D01*
X10841333Y-11207533D02*
X10793714Y-11350390D01*
X10793714Y-11350390D02*
X10222286Y-11921819D01*
X10222286Y-11921819D02*
X10841333Y-11921819D01*
%TO.C,R1*%
D11*
X16458000Y-2840000D02*
X16458000Y-4770000D01*
X16458000Y-13000000D02*
X16458000Y-11070000D01*
X15208000Y-4770000D02*
X17708000Y-4770000D01*
X17708000Y-11070000D01*
X15208000Y-11070000D01*
X15208000Y-4770000D01*
%TO.C,C1*%
X8132000Y-20313000D02*
X13132000Y-20313000D01*
X13132000Y-22813000D01*
X8132000Y-22813000D01*
X8132000Y-20313000D01*
%TO.C,SW1*%
X4050000Y-31821000D02*
X10050000Y-31821000D01*
X4050000Y-37821000D02*
X4050000Y-31821000D01*
X10050000Y-31821000D02*
X10050000Y-34821000D01*
X10050000Y-34821000D02*
X10050000Y-37821000D01*
X10050000Y-37821000D02*
X4050000Y-37821000D01*
X9065564Y-34821000D02*
G75*
G02*
X5034436Y-34821000I-2015564J0D01*
G01*
X5034436Y-34821000D02*
G75*
G02*
X9065564Y-34821000I2015564J0D01*
G01*
%TO.C,J1*%
X6110000Y-16366000D02*
X15635000Y-16366000D01*
X6110000Y-18906000D02*
X6110000Y-16366000D01*
X15635000Y-16366000D02*
X16270000Y-17001000D01*
X16270000Y-17001000D02*
X16270000Y-18906000D01*
X16270000Y-18906000D02*
X6110000Y-18906000D01*
%TO.C,U1*%
X23598000Y-9400000D02*
X23598000Y-16000000D01*
X23598000Y-9400000D02*
X41598000Y-9400000D01*
X23598000Y-16000000D02*
X24098000Y-16500000D01*
X23598000Y-17000000D02*
X23598000Y-29400000D01*
X23598000Y-29400000D02*
X41598000Y-29400000D01*
X24098000Y-16500000D02*
X23598000Y-17000000D01*
X41598000Y-29400000D02*
X41598000Y-9400000D01*
%TO.C,SW2*%
X6508000Y-8467000D02*
X9508000Y-8467000D01*
X6508000Y-14467000D02*
X6508000Y-8467000D01*
X9508000Y-8467000D02*
X12508000Y-8467000D01*
X12508000Y-8467000D02*
X12508000Y-14467000D01*
X12508000Y-14467000D02*
X6508000Y-14467000D01*
X11523564Y-11467000D02*
G75*
G02*
X7492436Y-11467000I-2015564J0D01*
G01*
X7492436Y-11467000D02*
G75*
G02*
X11523564Y-11467000I2015564J0D01*
G01*
%TD*%
M02*
