%TF.GenerationSoftware,KiCad,Pcbnew,10.0.4*%
%TF.CreationDate,2026-09-17T18:30:32+05:30*%
%TF.ProjectId,esp32c3-breakout,65737033-3263-4332-9d62-7265616b6f75,rev?*%
%TF.SameCoordinates,Original*%
%TF.FileFunction,Copper,L2,Bot*%
%TF.FilePolarity,Positive*%
%FSLAX46Y46*%
G04 Gerber Fmt 4.6, Leading zero omitted, Abs format (unit mm)*
G04 Created by KiCad (PCBNEW 10.0.4) date 2026-09-17 18:30:32*
%MOMM*%
%LPD*%
G01*
G04 APERTURE LIST*
%TA.AperFunction,ComponentPad*%
%ADD10C,1.600000*%
%TD*%
%TA.AperFunction,ComponentPad*%
%ADD11C,2.000000*%
%TD*%
%TA.AperFunction,ComponentPad*%
%ADD12R,1.700000X1.700000*%
%TD*%
%TA.AperFunction,ComponentPad*%
%ADD13C,1.700000*%
%TD*%
%TA.AperFunction,HeatsinkPad*%
%ADD14C,0.600000*%
%TD*%
%TA.AperFunction,ViaPad*%
%ADD15C,0.600000*%
%TD*%
%TA.AperFunction,Conductor*%
%ADD16C,0.200000*%
%TD*%
G04 APERTURE END LIST*
D10*
%TO.P,R1,1*%
%TO.N,VCC*%
X16458000Y-13000000D03*
%TO.P,R1,2*%
%TO.N,EN*%
X16458000Y-2840000D03*
%TD*%
%TO.P,C1,1*%
%TO.N,VCC*%
X8132000Y-21563000D03*
%TO.P,C1,2*%
%TO.N,GND*%
X13132000Y-21563000D03*
%TD*%
D11*
%TO.P,SW1,1*%
%TO.N,EN*%
X9300000Y-31571000D03*
X9300000Y-38071000D03*
%TO.P,SW1,2*%
%TO.N,GND*%
X4800000Y-31571000D03*
X4800000Y-38071000D03*
%TD*%
D12*
%TO.P,J1,1*%
%TO.N,VCC*%
X15000000Y-17636000D03*
D13*
%TO.P,J1,2*%
%TO.N,GND*%
X12460000Y-17636000D03*
%TO.P,J1,3*%
%TO.N,UART_TX*%
X9920000Y-17636000D03*
%TO.P,J1,4*%
%TO.N,UART_RX*%
X7380000Y-17636000D03*
%TD*%
D14*
%TO.P,U1,19*%
%TO.N,GND*%
X32458000Y-22150000D03*
X32458000Y-23250000D03*
X33008000Y-21600000D03*
X33008000Y-22700000D03*
X33008000Y-23800000D03*
X33558000Y-22150000D03*
X33558000Y-23250000D03*
X34108000Y-21600000D03*
X34108000Y-22700000D03*
X34108000Y-23800000D03*
X34658000Y-22150000D03*
X34658000Y-23250000D03*
%TD*%
D11*
%TO.P,SW2,1*%
%TO.N,BOOT*%
X6258000Y-9217000D03*
X12758000Y-9217000D03*
%TO.P,SW2,2*%
%TO.N,GND*%
X6258000Y-13717000D03*
X12758000Y-13717000D03*
%TD*%
D15*
%TO.N,UART_TX*%
X38600500Y-22046500D03*
%TO.N,BOOT*%
X32867100Y-16508500D03*
%TO.N,UART_RX*%
X38588200Y-25011800D03*
%TD*%
%TO.N,UART_TX*%
D16*
X12169400Y-19885400D02*
X9920000Y-17636000D01*
X38600500Y-19888100D02*
X38600500Y-22046500D01*
X38600500Y-22046500D02*
X36439400Y-19885400D01*
X38600500Y-22046500D02*
X38600500Y-19888100D01*
X36439400Y-19885400D02*
X12169400Y-19885400D01*
%TO.N,BOOT*%
X12758000Y-10861100D02*
X12758000Y-9217000D01*
X18405400Y-16508500D02*
X12758000Y-10861100D01*
X6258000Y-9217000D02*
X12758000Y-9217000D01*
X32867100Y-16508500D02*
X18405400Y-16508500D01*
%TO.N,UART_RX*%
X14755800Y-25011800D02*
X38588200Y-25011800D01*
X7380000Y-17636000D02*
X14755800Y-25011800D01*
%TO.N,GND*%
X32389800Y-21563000D02*
X32389800Y-21600000D01*
X32458000Y-21600000D02*
X33008000Y-21600000D01*
X33558000Y-23250000D02*
X32458000Y-23250000D01*
X31912300Y-21563000D02*
X32389800Y-21563000D01*
X12758000Y-13717000D02*
X6258000Y-13717000D01*
X32389800Y-21600000D02*
X32458000Y-21600000D01*
X33558000Y-23250000D02*
X34658000Y-23250000D01*
X33008000Y-23800000D02*
X34108000Y-23800000D01*
X32458000Y-21600000D02*
X32458000Y-22150000D01*
X31871000Y-21563000D02*
X31912300Y-21563000D01*
X34108000Y-22700000D02*
X33008000Y-22700000D01*
X13132000Y-21563000D02*
X31871000Y-21563000D01*
%TD*%
M02*
