%TF.GenerationSoftware,KiCad,Pcbnew,10.0.4*%
%TF.CreationDate,2026-09-17T18:30:33+05:30*%
%TF.ProjectId,esp32c3-breakout,65737033-3263-4332-9d62-7265616b6f75,rev?*%
%TF.SameCoordinates,Original*%
%TF.FileFunction,Other,Comment*%
%FSLAX46Y46*%
G04 Gerber Fmt 4.6, Leading zero omitted, Abs format (unit mm)*
G04 Created by KiCad (PCBNEW 10.0.4) date 2026-09-17 18:30:33*
%MOMM*%
%LPD*%
G01*
G04 APERTURE LIST*
%ADD10C,0.150000*%
%ADD11C,0.100000*%
G04 APERTURE END LIST*
D10*
X26526571Y-6954819D02*
X26526571Y-5954819D01*
X27097999Y-6954819D02*
X26669428Y-6383390D01*
X27097999Y-5954819D02*
X26526571Y-6526247D01*
X27526571Y-6431009D02*
X27859904Y-6431009D01*
X28002761Y-6954819D02*
X27526571Y-6954819D01*
X27526571Y-6954819D02*
X27526571Y-5954819D01*
X27526571Y-5954819D02*
X28002761Y-5954819D01*
X28431333Y-6431009D02*
X28764666Y-6431009D01*
X28907523Y-6954819D02*
X28431333Y-6954819D01*
X28431333Y-6954819D02*
X28431333Y-5954819D01*
X28431333Y-5954819D02*
X28907523Y-5954819D01*
X29336095Y-6954819D02*
X29336095Y-5954819D01*
X29336095Y-5954819D02*
X29717047Y-5954819D01*
X29717047Y-5954819D02*
X29812285Y-6002438D01*
X29812285Y-6002438D02*
X29859904Y-6050057D01*
X29859904Y-6050057D02*
X29907523Y-6145295D01*
X29907523Y-6145295D02*
X29907523Y-6288152D01*
X29907523Y-6288152D02*
X29859904Y-6383390D01*
X29859904Y-6383390D02*
X29812285Y-6431009D01*
X29812285Y-6431009D02*
X29717047Y-6478628D01*
X29717047Y-6478628D02*
X29336095Y-6478628D01*
X30336095Y-6573866D02*
X31098000Y-6573866D01*
X31764666Y-5954819D02*
X31955142Y-5954819D01*
X31955142Y-5954819D02*
X32050380Y-6002438D01*
X32050380Y-6002438D02*
X32145618Y-6097676D01*
X32145618Y-6097676D02*
X32193237Y-6288152D01*
X32193237Y-6288152D02*
X32193237Y-6621485D01*
X32193237Y-6621485D02*
X32145618Y-6811961D01*
X32145618Y-6811961D02*
X32050380Y-6907200D01*
X32050380Y-6907200D02*
X31955142Y-6954819D01*
X31955142Y-6954819D02*
X31764666Y-6954819D01*
X31764666Y-6954819D02*
X31669428Y-6907200D01*
X31669428Y-6907200D02*
X31574190Y-6811961D01*
X31574190Y-6811961D02*
X31526571Y-6621485D01*
X31526571Y-6621485D02*
X31526571Y-6288152D01*
X31526571Y-6288152D02*
X31574190Y-6097676D01*
X31574190Y-6097676D02*
X31669428Y-6002438D01*
X31669428Y-6002438D02*
X31764666Y-5954819D01*
X32621809Y-5954819D02*
X32621809Y-6764342D01*
X32621809Y-6764342D02*
X32669428Y-6859580D01*
X32669428Y-6859580D02*
X32717047Y-6907200D01*
X32717047Y-6907200D02*
X32812285Y-6954819D01*
X32812285Y-6954819D02*
X33002761Y-6954819D01*
X33002761Y-6954819D02*
X33097999Y-6907200D01*
X33097999Y-6907200D02*
X33145618Y-6859580D01*
X33145618Y-6859580D02*
X33193237Y-6764342D01*
X33193237Y-6764342D02*
X33193237Y-5954819D01*
X33526571Y-5954819D02*
X34097999Y-5954819D01*
X33812285Y-6954819D02*
X33812285Y-5954819D01*
X35098000Y-5954819D02*
X35764666Y-5954819D01*
X35764666Y-5954819D02*
X35098000Y-6954819D01*
X35098000Y-6954819D02*
X35764666Y-6954819D01*
X36336095Y-5954819D02*
X36526571Y-5954819D01*
X36526571Y-5954819D02*
X36621809Y-6002438D01*
X36621809Y-6002438D02*
X36717047Y-6097676D01*
X36717047Y-6097676D02*
X36764666Y-6288152D01*
X36764666Y-6288152D02*
X36764666Y-6621485D01*
X36764666Y-6621485D02*
X36717047Y-6811961D01*
X36717047Y-6811961D02*
X36621809Y-6907200D01*
X36621809Y-6907200D02*
X36526571Y-6954819D01*
X36526571Y-6954819D02*
X36336095Y-6954819D01*
X36336095Y-6954819D02*
X36240857Y-6907200D01*
X36240857Y-6907200D02*
X36145619Y-6811961D01*
X36145619Y-6811961D02*
X36098000Y-6621485D01*
X36098000Y-6621485D02*
X36098000Y-6288152D01*
X36098000Y-6288152D02*
X36145619Y-6097676D01*
X36145619Y-6097676D02*
X36240857Y-6002438D01*
X36240857Y-6002438D02*
X36336095Y-5954819D01*
X37193238Y-6954819D02*
X37193238Y-5954819D01*
X37193238Y-5954819D02*
X37764666Y-6954819D01*
X37764666Y-6954819D02*
X37764666Y-5954819D01*
X38240857Y-6431009D02*
X38574190Y-6431009D01*
X38717047Y-6954819D02*
X38240857Y-6954819D01*
X38240857Y-6954819D02*
X38240857Y-5954819D01*
X38240857Y-5954819D02*
X38717047Y-5954819D01*
X29836095Y-12669104D02*
X30312285Y-12669104D01*
X29740857Y-12954819D02*
X30074190Y-11954819D01*
X30074190Y-11954819D02*
X30407523Y-12954819D01*
X30740857Y-12288152D02*
X30740857Y-12954819D01*
X30740857Y-12383390D02*
X30788476Y-12335771D01*
X30788476Y-12335771D02*
X30883714Y-12288152D01*
X30883714Y-12288152D02*
X31026571Y-12288152D01*
X31026571Y-12288152D02*
X31121809Y-12335771D01*
X31121809Y-12335771D02*
X31169428Y-12431009D01*
X31169428Y-12431009D02*
X31169428Y-12954819D01*
X31502762Y-12288152D02*
X31883714Y-12288152D01*
X31645619Y-11954819D02*
X31645619Y-12811961D01*
X31645619Y-12811961D02*
X31693238Y-12907200D01*
X31693238Y-12907200D02*
X31788476Y-12954819D01*
X31788476Y-12954819D02*
X31883714Y-12954819D01*
X32598000Y-12907200D02*
X32502762Y-12954819D01*
X32502762Y-12954819D02*
X32312286Y-12954819D01*
X32312286Y-12954819D02*
X32217048Y-12907200D01*
X32217048Y-12907200D02*
X32169429Y-12811961D01*
X32169429Y-12811961D02*
X32169429Y-12431009D01*
X32169429Y-12431009D02*
X32217048Y-12335771D01*
X32217048Y-12335771D02*
X32312286Y-12288152D01*
X32312286Y-12288152D02*
X32502762Y-12288152D01*
X32502762Y-12288152D02*
X32598000Y-12335771D01*
X32598000Y-12335771D02*
X32645619Y-12431009D01*
X32645619Y-12431009D02*
X32645619Y-12526247D01*
X32645619Y-12526247D02*
X32169429Y-12621485D01*
X33074191Y-12288152D02*
X33074191Y-12954819D01*
X33074191Y-12383390D02*
X33121810Y-12335771D01*
X33121810Y-12335771D02*
X33217048Y-12288152D01*
X33217048Y-12288152D02*
X33359905Y-12288152D01*
X33359905Y-12288152D02*
X33455143Y-12335771D01*
X33455143Y-12335771D02*
X33502762Y-12431009D01*
X33502762Y-12431009D02*
X33502762Y-12954819D01*
X33978953Y-12288152D02*
X33978953Y-12954819D01*
X33978953Y-12383390D02*
X34026572Y-12335771D01*
X34026572Y-12335771D02*
X34121810Y-12288152D01*
X34121810Y-12288152D02*
X34264667Y-12288152D01*
X34264667Y-12288152D02*
X34359905Y-12335771D01*
X34359905Y-12335771D02*
X34407524Y-12431009D01*
X34407524Y-12431009D02*
X34407524Y-12954819D01*
X35312286Y-12954819D02*
X35312286Y-12431009D01*
X35312286Y-12431009D02*
X35264667Y-12335771D01*
X35264667Y-12335771D02*
X35169429Y-12288152D01*
X35169429Y-12288152D02*
X34978953Y-12288152D01*
X34978953Y-12288152D02*
X34883715Y-12335771D01*
X35312286Y-12907200D02*
X35217048Y-12954819D01*
X35217048Y-12954819D02*
X34978953Y-12954819D01*
X34978953Y-12954819D02*
X34883715Y-12907200D01*
X34883715Y-12907200D02*
X34836096Y-12811961D01*
X34836096Y-12811961D02*
X34836096Y-12716723D01*
X34836096Y-12716723D02*
X34883715Y-12621485D01*
X34883715Y-12621485D02*
X34978953Y-12573866D01*
X34978953Y-12573866D02*
X35217048Y-12573866D01*
X35217048Y-12573866D02*
X35312286Y-12526247D01*
D11*
X40124109Y-7338095D02*
X40124109Y-7576190D01*
X40124109Y-7576190D02*
X40362204Y-7599999D01*
X40362204Y-7599999D02*
X40338395Y-7576190D01*
X40338395Y-7576190D02*
X40314585Y-7528571D01*
X40314585Y-7528571D02*
X40314585Y-7409523D01*
X40314585Y-7409523D02*
X40338395Y-7361904D01*
X40338395Y-7361904D02*
X40362204Y-7338095D01*
X40362204Y-7338095D02*
X40409823Y-7314285D01*
X40409823Y-7314285D02*
X40528871Y-7314285D01*
X40528871Y-7314285D02*
X40576490Y-7338095D01*
X40576490Y-7338095D02*
X40600300Y-7361904D01*
X40600300Y-7361904D02*
X40624109Y-7409523D01*
X40624109Y-7409523D02*
X40624109Y-7528571D01*
X40624109Y-7528571D02*
X40600300Y-7576190D01*
X40600300Y-7576190D02*
X40576490Y-7599999D01*
X40624109Y-6719048D02*
X40290776Y-6719048D01*
X40338395Y-6719048D02*
X40314585Y-6695238D01*
X40314585Y-6695238D02*
X40290776Y-6647619D01*
X40290776Y-6647619D02*
X40290776Y-6576191D01*
X40290776Y-6576191D02*
X40314585Y-6528572D01*
X40314585Y-6528572D02*
X40362204Y-6504762D01*
X40362204Y-6504762D02*
X40624109Y-6504762D01*
X40362204Y-6504762D02*
X40314585Y-6480953D01*
X40314585Y-6480953D02*
X40290776Y-6433334D01*
X40290776Y-6433334D02*
X40290776Y-6361905D01*
X40290776Y-6361905D02*
X40314585Y-6314286D01*
X40314585Y-6314286D02*
X40362204Y-6290476D01*
X40362204Y-6290476D02*
X40624109Y-6290476D01*
X40624109Y-6052381D02*
X40290776Y-6052381D01*
X40338395Y-6052381D02*
X40314585Y-6028571D01*
X40314585Y-6028571D02*
X40290776Y-5980952D01*
X40290776Y-5980952D02*
X40290776Y-5909524D01*
X40290776Y-5909524D02*
X40314585Y-5861905D01*
X40314585Y-5861905D02*
X40362204Y-5838095D01*
X40362204Y-5838095D02*
X40624109Y-5838095D01*
X40362204Y-5838095D02*
X40314585Y-5814286D01*
X40314585Y-5814286D02*
X40290776Y-5766667D01*
X40290776Y-5766667D02*
X40290776Y-5695238D01*
X40290776Y-5695238D02*
X40314585Y-5647619D01*
X40314585Y-5647619D02*
X40362204Y-5623809D01*
X40362204Y-5623809D02*
X40624109Y-5623809D01*
X43659904Y-11026109D02*
X43421809Y-11026109D01*
X43421809Y-11026109D02*
X43398000Y-11264204D01*
X43398000Y-11264204D02*
X43421809Y-11240395D01*
X43421809Y-11240395D02*
X43469428Y-11216585D01*
X43469428Y-11216585D02*
X43588476Y-11216585D01*
X43588476Y-11216585D02*
X43636095Y-11240395D01*
X43636095Y-11240395D02*
X43659904Y-11264204D01*
X43659904Y-11264204D02*
X43683714Y-11311823D01*
X43683714Y-11311823D02*
X43683714Y-11430871D01*
X43683714Y-11430871D02*
X43659904Y-11478490D01*
X43659904Y-11478490D02*
X43636095Y-11502300D01*
X43636095Y-11502300D02*
X43588476Y-11526109D01*
X43588476Y-11526109D02*
X43469428Y-11526109D01*
X43469428Y-11526109D02*
X43421809Y-11502300D01*
X43421809Y-11502300D02*
X43398000Y-11478490D01*
X44278951Y-11526109D02*
X44278951Y-11192776D01*
X44278951Y-11240395D02*
X44302761Y-11216585D01*
X44302761Y-11216585D02*
X44350380Y-11192776D01*
X44350380Y-11192776D02*
X44421808Y-11192776D01*
X44421808Y-11192776D02*
X44469427Y-11216585D01*
X44469427Y-11216585D02*
X44493237Y-11264204D01*
X44493237Y-11264204D02*
X44493237Y-11526109D01*
X44493237Y-11264204D02*
X44517046Y-11216585D01*
X44517046Y-11216585D02*
X44564665Y-11192776D01*
X44564665Y-11192776D02*
X44636094Y-11192776D01*
X44636094Y-11192776D02*
X44683713Y-11216585D01*
X44683713Y-11216585D02*
X44707523Y-11264204D01*
X44707523Y-11264204D02*
X44707523Y-11526109D01*
X44945618Y-11526109D02*
X44945618Y-11192776D01*
X44945618Y-11240395D02*
X44969428Y-11216585D01*
X44969428Y-11216585D02*
X45017047Y-11192776D01*
X45017047Y-11192776D02*
X45088475Y-11192776D01*
X45088475Y-11192776D02*
X45136094Y-11216585D01*
X45136094Y-11216585D02*
X45159904Y-11264204D01*
X45159904Y-11264204D02*
X45159904Y-11526109D01*
X45159904Y-11264204D02*
X45183713Y-11216585D01*
X45183713Y-11216585D02*
X45231332Y-11192776D01*
X45231332Y-11192776D02*
X45302761Y-11192776D01*
X45302761Y-11192776D02*
X45350380Y-11216585D01*
X45350380Y-11216585D02*
X45374190Y-11264204D01*
X45374190Y-11264204D02*
X45374190Y-11526109D01*
%TO.C,U1*%
X18798000Y-11800000D02*
X18998000Y-11600000D01*
X18798000Y-11800000D02*
X18998000Y-12000000D01*
X18798000Y-11800000D02*
X23398000Y-11800000D01*
X23398000Y-11800000D02*
X23198000Y-11600000D01*
X23398000Y-11800000D02*
X23198000Y-12000000D01*
X40898000Y-4600000D02*
X40698000Y-4800000D01*
X40898000Y-4600000D02*
X41098000Y-4800000D01*
X40898000Y-9200000D02*
X40698000Y-9000000D01*
X40898000Y-9200000D02*
X40898000Y-4600000D01*
X40898000Y-9200000D02*
X41098000Y-9000000D01*
X41798000Y-11800000D02*
X41998000Y-11600000D01*
X41798000Y-11800000D02*
X41998000Y-12000000D01*
X41798000Y-11800000D02*
X46398000Y-11800000D01*
X46398000Y-11800000D02*
X46198000Y-11600000D01*
X46398000Y-11800000D02*
X46198000Y-12000000D01*
%TD*%
M02*
