%TF.GenerationSoftware,KiCad,Pcbnew,10.0.4*%
%TF.CreationDate,2026-09-17T18:30:33+05:30*%
%TF.ProjectId,esp32c3-breakout,65737033-3263-4332-9d62-7265616b6f75,rev?*%
%TF.SameCoordinates,Original*%
%TF.FileFunction,Legend,Top*%
%TF.FilePolarity,Positive*%
%FSLAX46Y46*%
G04 Gerber Fmt 4.6, Leading zero omitted, Abs format (unit mm)*
G04 Created by KiCad (PCBNEW 10.0.4) date 2026-09-17 18:30:33*
%MOMM*%
%LPD*%
G01*
G04 APERTURE LIST*
%ADD10C,0.150000*%
%ADD11C,0.120000*%
G04 APERTURE END LIST*
D10*
X14542819Y-8086666D02*
X14066628Y-8419999D01*
X14542819Y-8658094D02*
X13542819Y-8658094D01*
X13542819Y-8658094D02*
X13542819Y-8277142D01*
X13542819Y-8277142D02*
X13590438Y-8181904D01*
X13590438Y-8181904D02*
X13638057Y-8134285D01*
X13638057Y-8134285D02*
X13733295Y-8086666D01*
X13733295Y-8086666D02*
X13876152Y-8086666D01*
X13876152Y-8086666D02*
X13971390Y-8134285D01*
X13971390Y-8134285D02*
X14019009Y-8181904D01*
X14019009Y-8181904D02*
X14066628Y-8277142D01*
X14066628Y-8277142D02*
X14066628Y-8658094D01*
X14542819Y-7134285D02*
X14542819Y-7705713D01*
X14542819Y-7419999D02*
X13542819Y-7419999D01*
X13542819Y-7419999D02*
X13685676Y-7515237D01*
X13685676Y-7515237D02*
X13780914Y-7610475D01*
X13780914Y-7610475D02*
X13828533Y-7705713D01*
X10465333Y-19422580D02*
X10417714Y-19470200D01*
X10417714Y-19470200D02*
X10274857Y-19517819D01*
X10274857Y-19517819D02*
X10179619Y-19517819D01*
X10179619Y-19517819D02*
X10036762Y-19470200D01*
X10036762Y-19470200D02*
X9941524Y-19374961D01*
X9941524Y-19374961D02*
X9893905Y-19279723D01*
X9893905Y-19279723D02*
X9846286Y-19089247D01*
X9846286Y-19089247D02*
X9846286Y-18946390D01*
X9846286Y-18946390D02*
X9893905Y-18755914D01*
X9893905Y-18755914D02*
X9941524Y-18660676D01*
X9941524Y-18660676D02*
X10036762Y-18565438D01*
X10036762Y-18565438D02*
X10179619Y-18517819D01*
X10179619Y-18517819D02*
X10274857Y-18517819D01*
X10274857Y-18517819D02*
X10417714Y-18565438D01*
X10417714Y-18565438D02*
X10465333Y-18613057D01*
X11417714Y-19517819D02*
X10846286Y-19517819D01*
X11132000Y-19517819D02*
X11132000Y-18517819D01*
X11132000Y-18517819D02*
X11036762Y-18660676D01*
X11036762Y-18660676D02*
X10941524Y-18755914D01*
X10941524Y-18755914D02*
X10846286Y-18803533D01*
X11707200Y-36154332D02*
X11754819Y-36011475D01*
X11754819Y-36011475D02*
X11754819Y-35773380D01*
X11754819Y-35773380D02*
X11707200Y-35678142D01*
X11707200Y-35678142D02*
X11659580Y-35630523D01*
X11659580Y-35630523D02*
X11564342Y-35582904D01*
X11564342Y-35582904D02*
X11469104Y-35582904D01*
X11469104Y-35582904D02*
X11373866Y-35630523D01*
X11373866Y-35630523D02*
X11326247Y-35678142D01*
X11326247Y-35678142D02*
X11278628Y-35773380D01*
X11278628Y-35773380D02*
X11231009Y-35963856D01*
X11231009Y-35963856D02*
X11183390Y-36059094D01*
X11183390Y-36059094D02*
X11135771Y-36106713D01*
X11135771Y-36106713D02*
X11040533Y-36154332D01*
X11040533Y-36154332D02*
X10945295Y-36154332D01*
X10945295Y-36154332D02*
X10850057Y-36106713D01*
X10850057Y-36106713D02*
X10802438Y-36059094D01*
X10802438Y-36059094D02*
X10754819Y-35963856D01*
X10754819Y-35963856D02*
X10754819Y-35725761D01*
X10754819Y-35725761D02*
X10802438Y-35582904D01*
X10754819Y-35249570D02*
X11754819Y-35011475D01*
X11754819Y-35011475D02*
X11040533Y-34820999D01*
X11040533Y-34820999D02*
X11754819Y-34630523D01*
X11754819Y-34630523D02*
X10754819Y-34392428D01*
X11754819Y-33487666D02*
X11754819Y-34059094D01*
X11754819Y-33773380D02*
X10754819Y-33773380D01*
X10754819Y-33773380D02*
X10897676Y-33868618D01*
X10897676Y-33868618D02*
X10992914Y-33963856D01*
X10992914Y-33963856D02*
X11040533Y-34059094D01*
X16834819Y-17969333D02*
X17549104Y-17969333D01*
X17549104Y-17969333D02*
X17691961Y-18016952D01*
X17691961Y-18016952D02*
X17787200Y-18112190D01*
X17787200Y-18112190D02*
X17834819Y-18255047D01*
X17834819Y-18255047D02*
X17834819Y-18350285D01*
X17834819Y-16969333D02*
X17834819Y-17540761D01*
X17834819Y-17255047D02*
X16834819Y-17255047D01*
X16834819Y-17255047D02*
X16977676Y-17350285D01*
X16977676Y-17350285D02*
X17072914Y-17445523D01*
X17072914Y-17445523D02*
X17120533Y-17540761D01*
X21552819Y-28391904D02*
X22362342Y-28391904D01*
X22362342Y-28391904D02*
X22457580Y-28344285D01*
X22457580Y-28344285D02*
X22505200Y-28296666D01*
X22505200Y-28296666D02*
X22552819Y-28201428D01*
X22552819Y-28201428D02*
X22552819Y-28010952D01*
X22552819Y-28010952D02*
X22505200Y-27915714D01*
X22505200Y-27915714D02*
X22457580Y-27868095D01*
X22457580Y-27868095D02*
X22362342Y-27820476D01*
X22362342Y-27820476D02*
X21552819Y-27820476D01*
X22552819Y-26820476D02*
X22552819Y-27391904D01*
X22552819Y-27106190D02*
X21552819Y-27106190D01*
X21552819Y-27106190D02*
X21695676Y-27201428D01*
X21695676Y-27201428D02*
X21790914Y-27296666D01*
X21790914Y-27296666D02*
X21838533Y-27391904D01*
X8174667Y-7624200D02*
X8317524Y-7671819D01*
X8317524Y-7671819D02*
X8555619Y-7671819D01*
X8555619Y-7671819D02*
X8650857Y-7624200D01*
X8650857Y-7624200D02*
X8698476Y-7576580D01*
X8698476Y-7576580D02*
X8746095Y-7481342D01*
X8746095Y-7481342D02*
X8746095Y-7386104D01*
X8746095Y-7386104D02*
X8698476Y-7290866D01*
X8698476Y-7290866D02*
X8650857Y-7243247D01*
X8650857Y-7243247D02*
X8555619Y-7195628D01*
X8555619Y-7195628D02*
X8365143Y-7148009D01*
X8365143Y-7148009D02*
X8269905Y-7100390D01*
X8269905Y-7100390D02*
X8222286Y-7052771D01*
X8222286Y-7052771D02*
X8174667Y-6957533D01*
X8174667Y-6957533D02*
X8174667Y-6862295D01*
X8174667Y-6862295D02*
X8222286Y-6767057D01*
X8222286Y-6767057D02*
X8269905Y-6719438D01*
X8269905Y-6719438D02*
X8365143Y-6671819D01*
X8365143Y-6671819D02*
X8603238Y-6671819D01*
X8603238Y-6671819D02*
X8746095Y-6719438D01*
X9079429Y-6671819D02*
X9317524Y-7671819D01*
X9317524Y-7671819D02*
X9508000Y-6957533D01*
X9508000Y-6957533D02*
X9698476Y-7671819D01*
X9698476Y-7671819D02*
X9936572Y-6671819D01*
X10269905Y-6767057D02*
X10317524Y-6719438D01*
X10317524Y-6719438D02*
X10412762Y-6671819D01*
X10412762Y-6671819D02*
X10650857Y-6671819D01*
X10650857Y-6671819D02*
X10746095Y-6719438D01*
X10746095Y-6719438D02*
X10793714Y-6767057D01*
X10793714Y-6767057D02*
X10841333Y-6862295D01*
X10841333Y-6862295D02*
X10841333Y-6957533D01*
X10841333Y-6957533D02*
X10793714Y-7100390D01*
X10793714Y-7100390D02*
X10222286Y-7671819D01*
X10222286Y-7671819D02*
X10841333Y-7671819D01*
%TO.C,R1*%
D11*
X16458000Y-3880000D02*
X16458000Y-4650000D01*
X16458000Y-11960000D02*
X16458000Y-11190000D01*
X15088000Y-4650000D02*
X17828000Y-4650000D01*
X17828000Y-11190000D01*
X15088000Y-11190000D01*
X15088000Y-4650000D01*
%TO.C,C1*%
X8012000Y-20193000D02*
X13252000Y-20193000D01*
X8012000Y-20530000D02*
X8012000Y-20193000D01*
X8012000Y-22933000D02*
X8012000Y-22596000D01*
X13252000Y-20193000D02*
X13252000Y-20530000D01*
X13252000Y-22596000D02*
X13252000Y-22933000D01*
X13252000Y-22933000D02*
X8012000Y-22933000D01*
%TO.C,SW1*%
X3800000Y-32571000D02*
X3800000Y-37071000D01*
X6300000Y-38321000D02*
X7800000Y-38321000D01*
X7800000Y-31321000D02*
X6300000Y-31321000D01*
X10300000Y-37071000D02*
X10300000Y-32571000D01*
%TO.C,J1*%
X6000000Y-16256000D02*
X6000000Y-19016000D01*
X13730000Y-16256000D02*
X6000000Y-16256000D01*
X13730000Y-16256000D02*
X13730000Y-19016000D01*
X13730000Y-19016000D02*
X6000000Y-19016000D01*
X15000000Y-16256000D02*
X16380000Y-16256000D01*
X16380000Y-16256000D02*
X16380000Y-17636000D01*
%TO.C,U1*%
X23488000Y-9290000D02*
X23488000Y-15100000D01*
X23488000Y-9290000D02*
X41708000Y-9290000D01*
X23488000Y-29210000D02*
X23488000Y-29510000D01*
X23488000Y-29510000D02*
X41708000Y-29510000D01*
X41708000Y-9290000D02*
X41708000Y-15790000D01*
X41708000Y-29210000D02*
X41708000Y-29510000D01*
X23498000Y-15800000D02*
X22998000Y-15800000D01*
X23498000Y-15300000D01*
X23498000Y-15800000D01*
G36*
X23498000Y-15800000D02*
G01*
X22998000Y-15800000D01*
X23498000Y-15300000D01*
X23498000Y-15800000D01*
G37*
%TO.C,SW2*%
X6008000Y-10717000D02*
X6008000Y-12217000D01*
X7258000Y-14717000D02*
X11758000Y-14717000D01*
X11758000Y-8217000D02*
X7258000Y-8217000D01*
X13008000Y-12217000D02*
X13008000Y-10717000D01*
%TD*%
M02*
