%TF.GenerationSoftware,KiCad,Pcbnew,10.0.4*%
%TF.CreationDate,2026-09-17T18:30:33+05:30*%
%TF.ProjectId,esp32c3-breakout,65737033-3263-4332-9d62-7265616b6f75,rev?*%
%TF.SameCoordinates,Original*%
%TF.FileFunction,Other,User*%
%FSLAX46Y46*%
G04 Gerber Fmt 4.6, Leading zero omitted, Abs format (unit mm)*
G04 Created by KiCad (PCBNEW 10.0.4) date 2026-09-17 18:30:33*
%MOMM*%
%LPD*%
G01*
G04 APERTURE LIST*
%ADD10C,0.050000*%
G04 APERTURE END LIST*
%TO.C,R1*%
D10*
X14958000Y-1790000D02*
X17958000Y-1790000D01*
X17958000Y-14050000D01*
X14958000Y-14050000D01*
X14958000Y-1790000D01*
%TO.C,C1*%
X7082000Y-20063000D02*
X14182000Y-20063000D01*
X14182000Y-23063000D01*
X7082000Y-23063000D01*
X7082000Y-20063000D01*
%TO.C,SW1*%
X3300000Y-30071000D02*
X3300000Y-30321000D01*
X3300000Y-39321000D02*
X3300000Y-30321000D01*
X3300000Y-39321000D02*
X3300000Y-39571000D01*
X3300000Y-39571000D02*
X3550000Y-39571000D01*
X3550000Y-30071000D02*
X3300000Y-30071000D01*
X3550000Y-30071000D02*
X10550000Y-30071000D01*
X10550000Y-30071000D02*
X10800000Y-30071000D01*
X10550000Y-39571000D02*
X3550000Y-39571000D01*
X10800000Y-30071000D02*
X10800000Y-30321000D01*
X10800000Y-30321000D02*
X10800000Y-39321000D01*
X10800000Y-39321000D02*
X10800000Y-39571000D01*
X10800000Y-39571000D02*
X10550000Y-39571000D01*
%TO.C,J1*%
X5610000Y-15866000D02*
X16770000Y-15866000D01*
X16770000Y-19406000D01*
X5610000Y-19406000D01*
X5610000Y-15866000D01*
%TO.C,U1*%
X18348000Y-4150000D02*
X18348000Y-15650000D01*
X18348000Y-4150000D02*
X46848000Y-4150000D01*
X18348000Y-15650000D02*
X22848000Y-15650000D01*
X22848000Y-29650000D02*
X22848000Y-15650000D01*
X22848000Y-29650000D02*
X42348000Y-29650000D01*
X42348000Y-15650000D02*
X42348000Y-29650000D01*
X42348000Y-15650000D02*
X46848000Y-15650000D01*
X46848000Y-4150000D02*
X46848000Y-15650000D01*
%TO.C,SW2*%
X4758000Y-7717000D02*
X5008000Y-7717000D01*
X4758000Y-7967000D02*
X4758000Y-7717000D01*
X4758000Y-14967000D02*
X4758000Y-7967000D01*
X4758000Y-14967000D02*
X4758000Y-15217000D01*
X4758000Y-15217000D02*
X5008000Y-15217000D01*
X5008000Y-7717000D02*
X14008000Y-7717000D01*
X14008000Y-7717000D02*
X14258000Y-7717000D01*
X14008000Y-15217000D02*
X5008000Y-15217000D01*
X14008000Y-15217000D02*
X14258000Y-15217000D01*
X14258000Y-7717000D02*
X14258000Y-7967000D01*
X14258000Y-7967000D02*
X14258000Y-14967000D01*
X14258000Y-15217000D02*
X14258000Y-14967000D01*
%TD*%
M02*
