%TF.GenerationSoftware,KiCad,Pcbnew,10.0.4*%
%TF.CreationDate,2026-09-17T18:21:18+05:30*%
%TF.ProjectId,555-astable,3535352d-6173-4746-9162-6c652e6b6963,rev?*%
%TF.SameCoordinates,Original*%
%TF.FileFunction,AssemblyDrawing,Top*%
%FSLAX46Y46*%
G04 Gerber Fmt 4.6, Leading zero omitted, Abs format (unit mm)*
G04 Created by KiCad (PCBNEW 10.0.4) date 2026-09-17 18:21:18*
%MOMM*%
%LPD*%
G01*
G04 APERTURE LIST*
%ADD10C,0.150000*%
%ADD11C,0.120000*%
%ADD12C,0.100000*%
G04 APERTURE END LIST*
D10*
X6753333Y-4090819D02*
X6753333Y-3090819D01*
X6753333Y-3090819D02*
X7324761Y-4090819D01*
X7324761Y-4090819D02*
X7324761Y-3090819D01*
X7800952Y-3567009D02*
X8134285Y-3567009D01*
X8277142Y-4090819D02*
X7800952Y-4090819D01*
X7800952Y-4090819D02*
X7800952Y-3090819D01*
X7800952Y-3090819D02*
X8277142Y-3090819D01*
X9181904Y-3090819D02*
X8705714Y-3090819D01*
X8705714Y-3090819D02*
X8658095Y-3567009D01*
X8658095Y-3567009D02*
X8705714Y-3519390D01*
X8705714Y-3519390D02*
X8800952Y-3471771D01*
X8800952Y-3471771D02*
X9039047Y-3471771D01*
X9039047Y-3471771D02*
X9134285Y-3519390D01*
X9134285Y-3519390D02*
X9181904Y-3567009D01*
X9181904Y-3567009D02*
X9229523Y-3662247D01*
X9229523Y-3662247D02*
X9229523Y-3900342D01*
X9229523Y-3900342D02*
X9181904Y-3995580D01*
X9181904Y-3995580D02*
X9134285Y-4043200D01*
X9134285Y-4043200D02*
X9039047Y-4090819D01*
X9039047Y-4090819D02*
X8800952Y-4090819D01*
X8800952Y-4090819D02*
X8705714Y-4043200D01*
X8705714Y-4043200D02*
X8658095Y-3995580D01*
X10134285Y-3090819D02*
X9658095Y-3090819D01*
X9658095Y-3090819D02*
X9610476Y-3567009D01*
X9610476Y-3567009D02*
X9658095Y-3519390D01*
X9658095Y-3519390D02*
X9753333Y-3471771D01*
X9753333Y-3471771D02*
X9991428Y-3471771D01*
X9991428Y-3471771D02*
X10086666Y-3519390D01*
X10086666Y-3519390D02*
X10134285Y-3567009D01*
X10134285Y-3567009D02*
X10181904Y-3662247D01*
X10181904Y-3662247D02*
X10181904Y-3900342D01*
X10181904Y-3900342D02*
X10134285Y-3995580D01*
X10134285Y-3995580D02*
X10086666Y-4043200D01*
X10086666Y-4043200D02*
X9991428Y-4090819D01*
X9991428Y-4090819D02*
X9753333Y-4090819D01*
X9753333Y-4090819D02*
X9658095Y-4043200D01*
X9658095Y-4043200D02*
X9610476Y-3995580D01*
X11086666Y-3090819D02*
X10610476Y-3090819D01*
X10610476Y-3090819D02*
X10562857Y-3567009D01*
X10562857Y-3567009D02*
X10610476Y-3519390D01*
X10610476Y-3519390D02*
X10705714Y-3471771D01*
X10705714Y-3471771D02*
X10943809Y-3471771D01*
X10943809Y-3471771D02*
X11039047Y-3519390D01*
X11039047Y-3519390D02*
X11086666Y-3567009D01*
X11086666Y-3567009D02*
X11134285Y-3662247D01*
X11134285Y-3662247D02*
X11134285Y-3900342D01*
X11134285Y-3900342D02*
X11086666Y-3995580D01*
X11086666Y-3995580D02*
X11039047Y-4043200D01*
X11039047Y-4043200D02*
X10943809Y-4090819D01*
X10943809Y-4090819D02*
X10705714Y-4090819D01*
X10705714Y-4090819D02*
X10610476Y-4043200D01*
X10610476Y-4043200D02*
X10562857Y-3995580D01*
X11562857Y-4090819D02*
X11562857Y-3090819D01*
X11562857Y-3090819D02*
X11943809Y-3090819D01*
X11943809Y-3090819D02*
X12039047Y-3138438D01*
X12039047Y-3138438D02*
X12086666Y-3186057D01*
X12086666Y-3186057D02*
X12134285Y-3281295D01*
X12134285Y-3281295D02*
X12134285Y-3424152D01*
X12134285Y-3424152D02*
X12086666Y-3519390D01*
X12086666Y-3519390D02*
X12039047Y-3567009D01*
X12039047Y-3567009D02*
X11943809Y-3614628D01*
X11943809Y-3614628D02*
X11562857Y-3614628D01*
X8874819Y-10537904D02*
X9684342Y-10537904D01*
X9684342Y-10537904D02*
X9779580Y-10490285D01*
X9779580Y-10490285D02*
X9827200Y-10442666D01*
X9827200Y-10442666D02*
X9874819Y-10347428D01*
X9874819Y-10347428D02*
X9874819Y-10156952D01*
X9874819Y-10156952D02*
X9827200Y-10061714D01*
X9827200Y-10061714D02*
X9779580Y-10014095D01*
X9779580Y-10014095D02*
X9684342Y-9966476D01*
X9684342Y-9966476D02*
X8874819Y-9966476D01*
X9874819Y-8966476D02*
X9874819Y-9537904D01*
X9874819Y-9252190D02*
X8874819Y-9252190D01*
X8874819Y-9252190D02*
X9017676Y-9347428D01*
X9017676Y-9347428D02*
X9112914Y-9442666D01*
X9112914Y-9442666D02*
X9160533Y-9537904D01*
X37824819Y-7515238D02*
X37824819Y-8086666D01*
X37824819Y-7800952D02*
X36824819Y-7800952D01*
X36824819Y-7800952D02*
X36967676Y-7896190D01*
X36967676Y-7896190D02*
X37062914Y-7991428D01*
X37062914Y-7991428D02*
X37110533Y-8086666D01*
X36824819Y-6896190D02*
X36824819Y-6800952D01*
X36824819Y-6800952D02*
X36872438Y-6705714D01*
X36872438Y-6705714D02*
X36920057Y-6658095D01*
X36920057Y-6658095D02*
X37015295Y-6610476D01*
X37015295Y-6610476D02*
X37205771Y-6562857D01*
X37205771Y-6562857D02*
X37443866Y-6562857D01*
X37443866Y-6562857D02*
X37634342Y-6610476D01*
X37634342Y-6610476D02*
X37729580Y-6658095D01*
X37729580Y-6658095D02*
X37777200Y-6705714D01*
X37777200Y-6705714D02*
X37824819Y-6800952D01*
X37824819Y-6800952D02*
X37824819Y-6896190D01*
X37824819Y-6896190D02*
X37777200Y-6991428D01*
X37777200Y-6991428D02*
X37729580Y-7039047D01*
X37729580Y-7039047D02*
X37634342Y-7086666D01*
X37634342Y-7086666D02*
X37443866Y-7134285D01*
X37443866Y-7134285D02*
X37205771Y-7134285D01*
X37205771Y-7134285D02*
X37015295Y-7086666D01*
X37015295Y-7086666D02*
X36920057Y-7039047D01*
X36920057Y-7039047D02*
X36872438Y-6991428D01*
X36872438Y-6991428D02*
X36824819Y-6896190D01*
X37824819Y-6134285D02*
X36824819Y-6134285D01*
X37443866Y-6039047D02*
X37824819Y-5753333D01*
X37158152Y-5753333D02*
X37539104Y-6134285D01*
X35454819Y-7086666D02*
X34978628Y-7419999D01*
X35454819Y-7658094D02*
X34454819Y-7658094D01*
X34454819Y-7658094D02*
X34454819Y-7277142D01*
X34454819Y-7277142D02*
X34502438Y-7181904D01*
X34502438Y-7181904D02*
X34550057Y-7134285D01*
X34550057Y-7134285D02*
X34645295Y-7086666D01*
X34645295Y-7086666D02*
X34788152Y-7086666D01*
X34788152Y-7086666D02*
X34883390Y-7134285D01*
X34883390Y-7134285D02*
X34931009Y-7181904D01*
X34931009Y-7181904D02*
X34978628Y-7277142D01*
X34978628Y-7277142D02*
X34978628Y-7658094D01*
X35454819Y-6134285D02*
X35454819Y-6705713D01*
X35454819Y-6419999D02*
X34454819Y-6419999D01*
X34454819Y-6419999D02*
X34597676Y-6515237D01*
X34597676Y-6515237D02*
X34692914Y-6610475D01*
X34692914Y-6610475D02*
X34740533Y-6705713D01*
X4494819Y-9205713D02*
X4494819Y-8586666D01*
X4494819Y-8586666D02*
X4875771Y-8919999D01*
X4875771Y-8919999D02*
X4875771Y-8777142D01*
X4875771Y-8777142D02*
X4923390Y-8681904D01*
X4923390Y-8681904D02*
X4971009Y-8634285D01*
X4971009Y-8634285D02*
X5066247Y-8586666D01*
X5066247Y-8586666D02*
X5304342Y-8586666D01*
X5304342Y-8586666D02*
X5399580Y-8634285D01*
X5399580Y-8634285D02*
X5447200Y-8681904D01*
X5447200Y-8681904D02*
X5494819Y-8777142D01*
X5494819Y-8777142D02*
X5494819Y-9062856D01*
X5494819Y-9062856D02*
X5447200Y-9158094D01*
X5447200Y-9158094D02*
X5399580Y-9205713D01*
X4494819Y-8253332D02*
X4494819Y-7634285D01*
X4494819Y-7634285D02*
X4875771Y-7967618D01*
X4875771Y-7967618D02*
X4875771Y-7824761D01*
X4875771Y-7824761D02*
X4923390Y-7729523D01*
X4923390Y-7729523D02*
X4971009Y-7681904D01*
X4971009Y-7681904D02*
X5066247Y-7634285D01*
X5066247Y-7634285D02*
X5304342Y-7634285D01*
X5304342Y-7634285D02*
X5399580Y-7681904D01*
X5399580Y-7681904D02*
X5447200Y-7729523D01*
X5447200Y-7729523D02*
X5494819Y-7824761D01*
X5494819Y-7824761D02*
X5494819Y-8110475D01*
X5494819Y-8110475D02*
X5447200Y-8205713D01*
X5447200Y-8205713D02*
X5399580Y-8253332D01*
X4494819Y-7015237D02*
X4494819Y-6919999D01*
X4494819Y-6919999D02*
X4542438Y-6824761D01*
X4542438Y-6824761D02*
X4590057Y-6777142D01*
X4590057Y-6777142D02*
X4685295Y-6729523D01*
X4685295Y-6729523D02*
X4875771Y-6681904D01*
X4875771Y-6681904D02*
X5113866Y-6681904D01*
X5113866Y-6681904D02*
X5304342Y-6729523D01*
X5304342Y-6729523D02*
X5399580Y-6777142D01*
X5399580Y-6777142D02*
X5447200Y-6824761D01*
X5447200Y-6824761D02*
X5494819Y-6919999D01*
X5494819Y-6919999D02*
X5494819Y-7015237D01*
X5494819Y-7015237D02*
X5447200Y-7110475D01*
X5447200Y-7110475D02*
X5399580Y-7158094D01*
X5399580Y-7158094D02*
X5304342Y-7205713D01*
X5304342Y-7205713D02*
X5113866Y-7253332D01*
X5113866Y-7253332D02*
X4875771Y-7253332D01*
X4875771Y-7253332D02*
X4685295Y-7205713D01*
X4685295Y-7205713D02*
X4590057Y-7158094D01*
X4590057Y-7158094D02*
X4542438Y-7110475D01*
X4542438Y-7110475D02*
X4494819Y-7015237D01*
X3124819Y-8086666D02*
X2648628Y-8419999D01*
X3124819Y-8658094D02*
X2124819Y-8658094D01*
X2124819Y-8658094D02*
X2124819Y-8277142D01*
X2124819Y-8277142D02*
X2172438Y-8181904D01*
X2172438Y-8181904D02*
X2220057Y-8134285D01*
X2220057Y-8134285D02*
X2315295Y-8086666D01*
X2315295Y-8086666D02*
X2458152Y-8086666D01*
X2458152Y-8086666D02*
X2553390Y-8134285D01*
X2553390Y-8134285D02*
X2601009Y-8181904D01*
X2601009Y-8181904D02*
X2648628Y-8277142D01*
X2648628Y-8277142D02*
X2648628Y-8658094D01*
X2124819Y-7753332D02*
X2124819Y-7134285D01*
X2124819Y-7134285D02*
X2505771Y-7467618D01*
X2505771Y-7467618D02*
X2505771Y-7324761D01*
X2505771Y-7324761D02*
X2553390Y-7229523D01*
X2553390Y-7229523D02*
X2601009Y-7181904D01*
X2601009Y-7181904D02*
X2696247Y-7134285D01*
X2696247Y-7134285D02*
X2934342Y-7134285D01*
X2934342Y-7134285D02*
X3029580Y-7181904D01*
X3029580Y-7181904D02*
X3077200Y-7229523D01*
X3077200Y-7229523D02*
X3124819Y-7324761D01*
X3124819Y-7324761D02*
X3124819Y-7610475D01*
X3124819Y-7610475D02*
X3077200Y-7705713D01*
X3077200Y-7705713D02*
X3029580Y-7753332D01*
X8503142Y-22531819D02*
X8026952Y-22531819D01*
X8026952Y-22531819D02*
X8026952Y-21531819D01*
X8836476Y-22008009D02*
X9169809Y-22008009D01*
X9312666Y-22531819D02*
X8836476Y-22531819D01*
X8836476Y-22531819D02*
X8836476Y-21531819D01*
X8836476Y-21531819D02*
X9312666Y-21531819D01*
X9741238Y-22531819D02*
X9741238Y-21531819D01*
X9741238Y-21531819D02*
X9979333Y-21531819D01*
X9979333Y-21531819D02*
X10122190Y-21579438D01*
X10122190Y-21579438D02*
X10217428Y-21674676D01*
X10217428Y-21674676D02*
X10265047Y-21769914D01*
X10265047Y-21769914D02*
X10312666Y-21960390D01*
X10312666Y-21960390D02*
X10312666Y-22103247D01*
X10312666Y-22103247D02*
X10265047Y-22293723D01*
X10265047Y-22293723D02*
X10217428Y-22388961D01*
X10217428Y-22388961D02*
X10122190Y-22484200D01*
X10122190Y-22484200D02*
X9979333Y-22531819D01*
X9979333Y-22531819D02*
X9741238Y-22531819D01*
D11*
X8555524Y-26400855D02*
X8555524Y-25600855D01*
X8555524Y-25600855D02*
X8746000Y-25600855D01*
X8746000Y-25600855D02*
X8860286Y-25638950D01*
X8860286Y-25638950D02*
X8936476Y-25715140D01*
X8936476Y-25715140D02*
X8974571Y-25791331D01*
X8974571Y-25791331D02*
X9012667Y-25943712D01*
X9012667Y-25943712D02*
X9012667Y-26057998D01*
X9012667Y-26057998D02*
X8974571Y-26210379D01*
X8974571Y-26210379D02*
X8936476Y-26286569D01*
X8936476Y-26286569D02*
X8860286Y-26362760D01*
X8860286Y-26362760D02*
X8746000Y-26400855D01*
X8746000Y-26400855D02*
X8555524Y-26400855D01*
X9774571Y-26400855D02*
X9317428Y-26400855D01*
X9546000Y-26400855D02*
X9546000Y-25600855D01*
X9546000Y-25600855D02*
X9469809Y-25715140D01*
X9469809Y-25715140D02*
X9393619Y-25791331D01*
X9393619Y-25791331D02*
X9317428Y-25829426D01*
D10*
X7586380Y-20431819D02*
X7014952Y-20431819D01*
X7300666Y-20431819D02*
X7300666Y-19431819D01*
X7300666Y-19431819D02*
X7205428Y-19574676D01*
X7205428Y-19574676D02*
X7110190Y-19669914D01*
X7110190Y-19669914D02*
X7014952Y-19717533D01*
X8205428Y-19431819D02*
X8300666Y-19431819D01*
X8300666Y-19431819D02*
X8395904Y-19479438D01*
X8395904Y-19479438D02*
X8443523Y-19527057D01*
X8443523Y-19527057D02*
X8491142Y-19622295D01*
X8491142Y-19622295D02*
X8538761Y-19812771D01*
X8538761Y-19812771D02*
X8538761Y-20050866D01*
X8538761Y-20050866D02*
X8491142Y-20241342D01*
X8491142Y-20241342D02*
X8443523Y-20336580D01*
X8443523Y-20336580D02*
X8395904Y-20384200D01*
X8395904Y-20384200D02*
X8300666Y-20431819D01*
X8300666Y-20431819D02*
X8205428Y-20431819D01*
X8205428Y-20431819D02*
X8110190Y-20384200D01*
X8110190Y-20384200D02*
X8062571Y-20336580D01*
X8062571Y-20336580D02*
X8014952Y-20241342D01*
X8014952Y-20241342D02*
X7967333Y-20050866D01*
X7967333Y-20050866D02*
X7967333Y-19812771D01*
X7967333Y-19812771D02*
X8014952Y-19622295D01*
X8014952Y-19622295D02*
X8062571Y-19527057D01*
X8062571Y-19527057D02*
X8110190Y-19479438D01*
X8110190Y-19479438D02*
X8205428Y-19431819D01*
X9157809Y-19431819D02*
X9253047Y-19431819D01*
X9253047Y-19431819D02*
X9348285Y-19479438D01*
X9348285Y-19479438D02*
X9395904Y-19527057D01*
X9395904Y-19527057D02*
X9443523Y-19622295D01*
X9443523Y-19622295D02*
X9491142Y-19812771D01*
X9491142Y-19812771D02*
X9491142Y-20050866D01*
X9491142Y-20050866D02*
X9443523Y-20241342D01*
X9443523Y-20241342D02*
X9395904Y-20336580D01*
X9395904Y-20336580D02*
X9348285Y-20384200D01*
X9348285Y-20384200D02*
X9253047Y-20431819D01*
X9253047Y-20431819D02*
X9157809Y-20431819D01*
X9157809Y-20431819D02*
X9062571Y-20384200D01*
X9062571Y-20384200D02*
X9014952Y-20336580D01*
X9014952Y-20336580D02*
X8967333Y-20241342D01*
X8967333Y-20241342D02*
X8919714Y-20050866D01*
X8919714Y-20050866D02*
X8919714Y-19812771D01*
X8919714Y-19812771D02*
X8967333Y-19622295D01*
X8967333Y-19622295D02*
X9014952Y-19527057D01*
X9014952Y-19527057D02*
X9062571Y-19479438D01*
X9062571Y-19479438D02*
X9157809Y-19431819D01*
X9919714Y-19765152D02*
X9919714Y-20431819D01*
X9919714Y-19860390D02*
X9967333Y-19812771D01*
X9967333Y-19812771D02*
X10062571Y-19765152D01*
X10062571Y-19765152D02*
X10205428Y-19765152D01*
X10205428Y-19765152D02*
X10300666Y-19812771D01*
X10300666Y-19812771D02*
X10348285Y-19908009D01*
X10348285Y-19908009D02*
X10348285Y-20431819D01*
X11157809Y-19908009D02*
X10824476Y-19908009D01*
X10824476Y-20431819D02*
X10824476Y-19431819D01*
X10824476Y-19431819D02*
X11300666Y-19431819D01*
X8967333Y-17836580D02*
X8919714Y-17884200D01*
X8919714Y-17884200D02*
X8776857Y-17931819D01*
X8776857Y-17931819D02*
X8681619Y-17931819D01*
X8681619Y-17931819D02*
X8538762Y-17884200D01*
X8538762Y-17884200D02*
X8443524Y-17788961D01*
X8443524Y-17788961D02*
X8395905Y-17693723D01*
X8395905Y-17693723D02*
X8348286Y-17503247D01*
X8348286Y-17503247D02*
X8348286Y-17360390D01*
X8348286Y-17360390D02*
X8395905Y-17169914D01*
X8395905Y-17169914D02*
X8443524Y-17074676D01*
X8443524Y-17074676D02*
X8538762Y-16979438D01*
X8538762Y-16979438D02*
X8681619Y-16931819D01*
X8681619Y-16931819D02*
X8776857Y-16931819D01*
X8776857Y-16931819D02*
X8919714Y-16979438D01*
X8919714Y-16979438D02*
X8967333Y-17027057D01*
X9919714Y-17931819D02*
X9348286Y-17931819D01*
X9634000Y-17931819D02*
X9634000Y-16931819D01*
X9634000Y-16931819D02*
X9538762Y-17074676D01*
X9538762Y-17074676D02*
X9443524Y-17169914D01*
X9443524Y-17169914D02*
X9348286Y-17217533D01*
X8276571Y-23891819D02*
X7705143Y-23891819D01*
X7990857Y-23891819D02*
X7990857Y-22891819D01*
X7990857Y-22891819D02*
X7895619Y-23034676D01*
X7895619Y-23034676D02*
X7800381Y-23129914D01*
X7800381Y-23129914D02*
X7705143Y-23177533D01*
X8895619Y-22891819D02*
X8990857Y-22891819D01*
X8990857Y-22891819D02*
X9086095Y-22939438D01*
X9086095Y-22939438D02*
X9133714Y-22987057D01*
X9133714Y-22987057D02*
X9181333Y-23082295D01*
X9181333Y-23082295D02*
X9228952Y-23272771D01*
X9228952Y-23272771D02*
X9228952Y-23510866D01*
X9228952Y-23510866D02*
X9181333Y-23701342D01*
X9181333Y-23701342D02*
X9133714Y-23796580D01*
X9133714Y-23796580D02*
X9086095Y-23844200D01*
X9086095Y-23844200D02*
X8990857Y-23891819D01*
X8990857Y-23891819D02*
X8895619Y-23891819D01*
X8895619Y-23891819D02*
X8800381Y-23844200D01*
X8800381Y-23844200D02*
X8752762Y-23796580D01*
X8752762Y-23796580D02*
X8705143Y-23701342D01*
X8705143Y-23701342D02*
X8657524Y-23510866D01*
X8657524Y-23510866D02*
X8657524Y-23272771D01*
X8657524Y-23272771D02*
X8705143Y-23082295D01*
X8705143Y-23082295D02*
X8752762Y-22987057D01*
X8752762Y-22987057D02*
X8800381Y-22939438D01*
X8800381Y-22939438D02*
X8895619Y-22891819D01*
X9657524Y-23225152D02*
X9657524Y-23891819D01*
X9657524Y-23320390D02*
X9705143Y-23272771D01*
X9705143Y-23272771D02*
X9800381Y-23225152D01*
X9800381Y-23225152D02*
X9943238Y-23225152D01*
X9943238Y-23225152D02*
X10038476Y-23272771D01*
X10038476Y-23272771D02*
X10086095Y-23368009D01*
X10086095Y-23368009D02*
X10086095Y-23891819D01*
X10895619Y-23368009D02*
X10562286Y-23368009D01*
X10562286Y-23891819D02*
X10562286Y-22891819D01*
X10562286Y-22891819D02*
X11038476Y-22891819D01*
X9181333Y-21296580D02*
X9133714Y-21344200D01*
X9133714Y-21344200D02*
X8990857Y-21391819D01*
X8990857Y-21391819D02*
X8895619Y-21391819D01*
X8895619Y-21391819D02*
X8752762Y-21344200D01*
X8752762Y-21344200D02*
X8657524Y-21248961D01*
X8657524Y-21248961D02*
X8609905Y-21153723D01*
X8609905Y-21153723D02*
X8562286Y-20963247D01*
X8562286Y-20963247D02*
X8562286Y-20820390D01*
X8562286Y-20820390D02*
X8609905Y-20629914D01*
X8609905Y-20629914D02*
X8657524Y-20534676D01*
X8657524Y-20534676D02*
X8752762Y-20439438D01*
X8752762Y-20439438D02*
X8895619Y-20391819D01*
X8895619Y-20391819D02*
X8990857Y-20391819D01*
X8990857Y-20391819D02*
X9133714Y-20439438D01*
X9133714Y-20439438D02*
X9181333Y-20487057D01*
X9562286Y-20487057D02*
X9609905Y-20439438D01*
X9609905Y-20439438D02*
X9705143Y-20391819D01*
X9705143Y-20391819D02*
X9943238Y-20391819D01*
X9943238Y-20391819D02*
X10038476Y-20439438D01*
X10038476Y-20439438D02*
X10086095Y-20487057D01*
X10086095Y-20487057D02*
X10133714Y-20582295D01*
X10133714Y-20582295D02*
X10133714Y-20677533D01*
X10133714Y-20677533D02*
X10086095Y-20820390D01*
X10086095Y-20820390D02*
X9514667Y-21391819D01*
X9514667Y-21391819D02*
X10133714Y-21391819D01*
X37824819Y-21515238D02*
X37824819Y-22086666D01*
X37824819Y-21800952D02*
X36824819Y-21800952D01*
X36824819Y-21800952D02*
X36967676Y-21896190D01*
X36967676Y-21896190D02*
X37062914Y-21991428D01*
X37062914Y-21991428D02*
X37110533Y-22086666D01*
X36824819Y-20896190D02*
X36824819Y-20800952D01*
X36824819Y-20800952D02*
X36872438Y-20705714D01*
X36872438Y-20705714D02*
X36920057Y-20658095D01*
X36920057Y-20658095D02*
X37015295Y-20610476D01*
X37015295Y-20610476D02*
X37205771Y-20562857D01*
X37205771Y-20562857D02*
X37443866Y-20562857D01*
X37443866Y-20562857D02*
X37634342Y-20610476D01*
X37634342Y-20610476D02*
X37729580Y-20658095D01*
X37729580Y-20658095D02*
X37777200Y-20705714D01*
X37777200Y-20705714D02*
X37824819Y-20800952D01*
X37824819Y-20800952D02*
X37824819Y-20896190D01*
X37824819Y-20896190D02*
X37777200Y-20991428D01*
X37777200Y-20991428D02*
X37729580Y-21039047D01*
X37729580Y-21039047D02*
X37634342Y-21086666D01*
X37634342Y-21086666D02*
X37443866Y-21134285D01*
X37443866Y-21134285D02*
X37205771Y-21134285D01*
X37205771Y-21134285D02*
X37015295Y-21086666D01*
X37015295Y-21086666D02*
X36920057Y-21039047D01*
X36920057Y-21039047D02*
X36872438Y-20991428D01*
X36872438Y-20991428D02*
X36824819Y-20896190D01*
X37824819Y-20134285D02*
X36824819Y-20134285D01*
X37443866Y-20039047D02*
X37824819Y-19753333D01*
X37158152Y-19753333D02*
X37539104Y-20134285D01*
X35454819Y-21086666D02*
X34978628Y-21419999D01*
X35454819Y-21658094D02*
X34454819Y-21658094D01*
X34454819Y-21658094D02*
X34454819Y-21277142D01*
X34454819Y-21277142D02*
X34502438Y-21181904D01*
X34502438Y-21181904D02*
X34550057Y-21134285D01*
X34550057Y-21134285D02*
X34645295Y-21086666D01*
X34645295Y-21086666D02*
X34788152Y-21086666D01*
X34788152Y-21086666D02*
X34883390Y-21134285D01*
X34883390Y-21134285D02*
X34931009Y-21181904D01*
X34931009Y-21181904D02*
X34978628Y-21277142D01*
X34978628Y-21277142D02*
X34978628Y-21658094D01*
X34550057Y-20705713D02*
X34502438Y-20658094D01*
X34502438Y-20658094D02*
X34454819Y-20562856D01*
X34454819Y-20562856D02*
X34454819Y-20324761D01*
X34454819Y-20324761D02*
X34502438Y-20229523D01*
X34502438Y-20229523D02*
X34550057Y-20181904D01*
X34550057Y-20181904D02*
X34645295Y-20134285D01*
X34645295Y-20134285D02*
X34740533Y-20134285D01*
X34740533Y-20134285D02*
X34883390Y-20181904D01*
X34883390Y-20181904D02*
X35454819Y-20753332D01*
X35454819Y-20753332D02*
X35454819Y-20134285D01*
%TO.C,U1*%
D12*
X6245000Y-4696000D02*
X12595000Y-4696000D01*
X6245000Y-14856000D02*
X6245000Y-4696000D01*
X11595000Y-14856000D02*
X6245000Y-14856000D01*
X12595000Y-4696000D02*
X12595000Y-13856000D01*
X12595000Y-13856000D02*
X11595000Y-14856000D01*
%TO.C,R1*%
X35000000Y-1840000D02*
X35000000Y-3770000D01*
X35000000Y-12000000D02*
X35000000Y-10070000D01*
X33750000Y-3770000D02*
X36250000Y-3770000D01*
X36250000Y-10070000D01*
X33750000Y-10070000D01*
X33750000Y-3770000D01*
%TO.C,R3*%
X2670000Y-2840000D02*
X2670000Y-4770000D01*
X2670000Y-13000000D02*
X2670000Y-11070000D01*
X1420000Y-4770000D02*
X3920000Y-4770000D01*
X3920000Y-11070000D01*
X1420000Y-11070000D01*
X1420000Y-4770000D01*
%TO.C,D1*%
X11646000Y-27506694D02*
X11646000Y-24567306D01*
X11646000Y-27506694D02*
G75*
G02*
X11646000Y-24567306I-2500000J1469694D01*
G01*
X11646000Y-26037000D02*
G75*
G02*
X6646000Y-26037000I-2500000J0D01*
G01*
X6646000Y-26037000D02*
G75*
G02*
X11646000Y-26037000I2500000J0D01*
G01*
%TO.C,C1*%
X6634000Y-16227000D02*
X11634000Y-16227000D01*
X11634000Y-18727000D01*
X6634000Y-18727000D01*
X6634000Y-16227000D01*
%TO.C,C2*%
X6848000Y-19687000D02*
X11848000Y-19687000D01*
X11848000Y-22187000D01*
X6848000Y-22187000D01*
X6848000Y-19687000D01*
%TO.C,R2*%
X35000000Y-15840000D02*
X35000000Y-17770000D01*
X35000000Y-26000000D02*
X35000000Y-24070000D01*
X33750000Y-17770000D02*
X36250000Y-17770000D01*
X36250000Y-24070000D01*
X33750000Y-24070000D01*
X33750000Y-17770000D01*
%TD*%
M02*
