%TF.GenerationSoftware,KiCad,Pcbnew,10.0.4*%
%TF.CreationDate,2026-09-17T18:21:17+05:30*%
%TF.ProjectId,555-astable,3535352d-6173-4746-9162-6c652e6b6963,rev?*%
%TF.SameCoordinates,Original*%
%TF.FileFunction,Copper,L1,Top*%
%TF.FilePolarity,Positive*%
%FSLAX46Y46*%
G04 Gerber Fmt 4.6, Leading zero omitted, Abs format (unit mm)*
G04 Created by KiCad (PCBNEW 10.0.4) date 2026-09-17 18:21:17*
%MOMM*%
%LPD*%
G01*
G04 APERTURE LIST*
G04 Aperture macros list*
%AMRoundRect*
0 Rectangle with rounded corners*
0 $1 Rounding radius*
0 $2 $3 $4 $5 $6 $7 $8 $9 X,Y pos of 4 corners*
0 Add a 4 corners polygon primitive as box body*
4,1,4,$2,$3,$4,$5,$6,$7,$8,$9,$2,$3,0*
0 Add four circle primitives for the rounded corners*
1,1,$1+$1,$2,$3*
1,1,$1+$1,$4,$5*
1,1,$1+$1,$6,$7*
1,1,$1+$1,$8,$9*
0 Add four rect primitives between the rounded corners*
20,1,$1+$1,$2,$3,$4,$5,0*
20,1,$1+$1,$4,$5,$6,$7,0*
20,1,$1+$1,$6,$7,$8,$9,0*
20,1,$1+$1,$8,$9,$2,$3,0*%
G04 Aperture macros list end*
%TA.AperFunction,ComponentPad*%
%ADD10RoundRect,0.250000X0.550000X0.550000X-0.550000X0.550000X-0.550000X-0.550000X0.550000X-0.550000X0*%
%TD*%
%TA.AperFunction,ComponentPad*%
%ADD11C,1.600000*%
%TD*%
%TA.AperFunction,ComponentPad*%
%ADD12R,1.800000X1.800000*%
%TD*%
%TA.AperFunction,ComponentPad*%
%ADD13C,1.800000*%
%TD*%
%TA.AperFunction,Conductor*%
%ADD14C,0.200000*%
%TD*%
G04 APERTURE END LIST*
D10*
%TO.P,U1,1*%
%TO.N,GND*%
X13230000Y-13586000D03*
D11*
%TO.P,U1,2*%
%TO.N,TH_TR*%
X13230000Y-11046000D03*
%TO.P,U1,3*%
%TO.N,OUT*%
X13230000Y-8506000D03*
%TO.P,U1,4*%
%TO.N,VCC*%
X13230000Y-5966000D03*
%TO.P,U1,5*%
%TO.N,CTRL*%
X5610000Y-5966000D03*
%TO.P,U1,6*%
%TO.N,TH_TR*%
X5610000Y-8506000D03*
%TO.P,U1,7*%
%TO.N,DISCH*%
X5610000Y-11046000D03*
%TO.P,U1,8*%
%TO.N,VCC*%
X5610000Y-13586000D03*
%TD*%
%TO.P,R1,1*%
%TO.N,VCC*%
X35000000Y-12000000D03*
%TO.P,R1,2*%
%TO.N,DISCH*%
X35000000Y-1840000D03*
%TD*%
%TO.P,R3,1*%
%TO.N,OUT*%
X2670000Y-13000000D03*
%TO.P,R3,2*%
%TO.N,LED_A*%
X2670000Y-2840000D03*
%TD*%
D12*
%TO.P,D1,1*%
%TO.N,GND*%
X10416000Y-26037000D03*
D13*
%TO.P,D1,2*%
%TO.N,LED_A*%
X7876000Y-26037000D03*
%TD*%
D11*
%TO.P,C1,1*%
%TO.N,TH_TR*%
X6634000Y-17477000D03*
%TO.P,C1,2*%
%TO.N,GND*%
X11634000Y-17477000D03*
%TD*%
%TO.P,C2,1*%
%TO.N,CTRL*%
X6848000Y-20937000D03*
%TO.P,C2,2*%
%TO.N,GND*%
X11848000Y-20937000D03*
%TD*%
%TO.P,R2,1*%
%TO.N,DISCH*%
X35000000Y-26000000D03*
%TO.P,R2,2*%
%TO.N,TH_TR*%
X35000000Y-15840000D03*
%TD*%
%TO.N,GND*%
D14*
X11634000Y-15182000D02*
X11634000Y-17477000D01*
X13230000Y-13586000D02*
X11634000Y-15182000D01*
X11848000Y-20937000D02*
X11634000Y-20723000D01*
X10416000Y-26037000D02*
X10416000Y-22369000D01*
X11634000Y-20723000D02*
X11634000Y-17477000D01*
X10416000Y-22369000D02*
X11848000Y-20937000D01*
%TO.N,TH_TR*%
X4440300Y-9675700D02*
X5610000Y-8506000D01*
X6634000Y-17477000D02*
X4440300Y-15283300D01*
X4440300Y-15283300D02*
X4440300Y-9675700D01*
%TO.N,VCC*%
X5610000Y-13586000D02*
X13230000Y-5966000D01*
%TO.N,CTRL*%
X5610000Y-5966000D02*
X4024700Y-7551300D01*
X4024700Y-18113700D02*
X6848000Y-20937000D01*
X4024700Y-7551300D02*
X4024700Y-18113700D01*
%TO.N,DISCH*%
X35000000Y-26000000D02*
X36168800Y-24831200D01*
X36168800Y-24831200D02*
X36168800Y-3008800D01*
X36168800Y-3008800D02*
X35000000Y-1840000D01*
%TO.N,LED_A*%
X1559100Y-19720100D02*
X7876000Y-26037000D01*
X1559100Y-3950900D02*
X1559100Y-19720100D01*
X2670000Y-2840000D02*
X1559100Y-3950900D01*
%TD*%
M02*
