%TF.GenerationSoftware,KiCad,Pcbnew,10.0.4*%
%TF.CreationDate,2026-09-17T18:26:35+05:30*%
%TF.ProjectId,opamp-divider,6f70616d-702d-4646-9976-696465722e6b,rev?*%
%TF.SameCoordinates,Original*%
%TF.FileFunction,Legend,Top*%
%TF.FilePolarity,Positive*%
%FSLAX46Y46*%
G04 Gerber Fmt 4.6, Leading zero omitted, Abs format (unit mm)*
G04 Created by KiCad (PCBNEW 10.0.4) date 2026-09-17 18:26:35*
%MOMM*%
%LPD*%
G01*
G04 APERTURE LIST*
%ADD10C,0.150000*%
%ADD11C,0.120000*%
G04 APERTURE END LIST*
D10*
X38084819Y-23086666D02*
X37608628Y-23419999D01*
X38084819Y-23658094D02*
X37084819Y-23658094D01*
X37084819Y-23658094D02*
X37084819Y-23277142D01*
X37084819Y-23277142D02*
X37132438Y-23181904D01*
X37132438Y-23181904D02*
X37180057Y-23134285D01*
X37180057Y-23134285D02*
X37275295Y-23086666D01*
X37275295Y-23086666D02*
X37418152Y-23086666D01*
X37418152Y-23086666D02*
X37513390Y-23134285D01*
X37513390Y-23134285D02*
X37561009Y-23181904D01*
X37561009Y-23181904D02*
X37608628Y-23277142D01*
X37608628Y-23277142D02*
X37608628Y-23658094D01*
X37418152Y-22229523D02*
X38084819Y-22229523D01*
X37037200Y-22467618D02*
X37751485Y-22705713D01*
X37751485Y-22705713D02*
X37751485Y-22086666D01*
X28048095Y-19124819D02*
X28048095Y-19934342D01*
X28048095Y-19934342D02*
X28095714Y-20029580D01*
X28095714Y-20029580D02*
X28143333Y-20077200D01*
X28143333Y-20077200D02*
X28238571Y-20124819D01*
X28238571Y-20124819D02*
X28429047Y-20124819D01*
X28429047Y-20124819D02*
X28524285Y-20077200D01*
X28524285Y-20077200D02*
X28571904Y-20029580D01*
X28571904Y-20029580D02*
X28619523Y-19934342D01*
X28619523Y-19934342D02*
X28619523Y-19124819D01*
X29619523Y-20124819D02*
X29048095Y-20124819D01*
X29333809Y-20124819D02*
X29333809Y-19124819D01*
X29333809Y-19124819D02*
X29238571Y-19267676D01*
X29238571Y-19267676D02*
X29143333Y-19362914D01*
X29143333Y-19362914D02*
X29048095Y-19410533D01*
X12333333Y-19859580D02*
X12285714Y-19907200D01*
X12285714Y-19907200D02*
X12142857Y-19954819D01*
X12142857Y-19954819D02*
X12047619Y-19954819D01*
X12047619Y-19954819D02*
X11904762Y-19907200D01*
X11904762Y-19907200D02*
X11809524Y-19811961D01*
X11809524Y-19811961D02*
X11761905Y-19716723D01*
X11761905Y-19716723D02*
X11714286Y-19526247D01*
X11714286Y-19526247D02*
X11714286Y-19383390D01*
X11714286Y-19383390D02*
X11761905Y-19192914D01*
X11761905Y-19192914D02*
X11809524Y-19097676D01*
X11809524Y-19097676D02*
X11904762Y-19002438D01*
X11904762Y-19002438D02*
X12047619Y-18954819D01*
X12047619Y-18954819D02*
X12142857Y-18954819D01*
X12142857Y-18954819D02*
X12285714Y-19002438D01*
X12285714Y-19002438D02*
X12333333Y-19050057D01*
X13285714Y-19954819D02*
X12714286Y-19954819D01*
X13000000Y-19954819D02*
X13000000Y-18954819D01*
X13000000Y-18954819D02*
X12904762Y-19097676D01*
X12904762Y-19097676D02*
X12809524Y-19192914D01*
X12809524Y-19192914D02*
X12714286Y-19240533D01*
X8084819Y-11086666D02*
X7608628Y-11419999D01*
X8084819Y-11658094D02*
X7084819Y-11658094D01*
X7084819Y-11658094D02*
X7084819Y-11277142D01*
X7084819Y-11277142D02*
X7132438Y-11181904D01*
X7132438Y-11181904D02*
X7180057Y-11134285D01*
X7180057Y-11134285D02*
X7275295Y-11086666D01*
X7275295Y-11086666D02*
X7418152Y-11086666D01*
X7418152Y-11086666D02*
X7513390Y-11134285D01*
X7513390Y-11134285D02*
X7561009Y-11181904D01*
X7561009Y-11181904D02*
X7608628Y-11277142D01*
X7608628Y-11277142D02*
X7608628Y-11658094D01*
X8084819Y-10134285D02*
X8084819Y-10705713D01*
X8084819Y-10419999D02*
X7084819Y-10419999D01*
X7084819Y-10419999D02*
X7227676Y-10515237D01*
X7227676Y-10515237D02*
X7322914Y-10610475D01*
X7322914Y-10610475D02*
X7370533Y-10705713D01*
X38084819Y-8086666D02*
X37608628Y-8419999D01*
X38084819Y-8658094D02*
X37084819Y-8658094D01*
X37084819Y-8658094D02*
X37084819Y-8277142D01*
X37084819Y-8277142D02*
X37132438Y-8181904D01*
X37132438Y-8181904D02*
X37180057Y-8134285D01*
X37180057Y-8134285D02*
X37275295Y-8086666D01*
X37275295Y-8086666D02*
X37418152Y-8086666D01*
X37418152Y-8086666D02*
X37513390Y-8134285D01*
X37513390Y-8134285D02*
X37561009Y-8181904D01*
X37561009Y-8181904D02*
X37608628Y-8277142D01*
X37608628Y-8277142D02*
X37608628Y-8658094D01*
X37084819Y-7753332D02*
X37084819Y-7134285D01*
X37084819Y-7134285D02*
X37465771Y-7467618D01*
X37465771Y-7467618D02*
X37465771Y-7324761D01*
X37465771Y-7324761D02*
X37513390Y-7229523D01*
X37513390Y-7229523D02*
X37561009Y-7181904D01*
X37561009Y-7181904D02*
X37656247Y-7134285D01*
X37656247Y-7134285D02*
X37894342Y-7134285D01*
X37894342Y-7134285D02*
X37989580Y-7181904D01*
X37989580Y-7181904D02*
X38037200Y-7229523D01*
X38037200Y-7229523D02*
X38084819Y-7324761D01*
X38084819Y-7324761D02*
X38084819Y-7610475D01*
X38084819Y-7610475D02*
X38037200Y-7705713D01*
X38037200Y-7705713D02*
X37989580Y-7753332D01*
X8084819Y-33086666D02*
X7608628Y-33419999D01*
X8084819Y-33658094D02*
X7084819Y-33658094D01*
X7084819Y-33658094D02*
X7084819Y-33277142D01*
X7084819Y-33277142D02*
X7132438Y-33181904D01*
X7132438Y-33181904D02*
X7180057Y-33134285D01*
X7180057Y-33134285D02*
X7275295Y-33086666D01*
X7275295Y-33086666D02*
X7418152Y-33086666D01*
X7418152Y-33086666D02*
X7513390Y-33134285D01*
X7513390Y-33134285D02*
X7561009Y-33181904D01*
X7561009Y-33181904D02*
X7608628Y-33277142D01*
X7608628Y-33277142D02*
X7608628Y-33658094D01*
X7180057Y-32705713D02*
X7132438Y-32658094D01*
X7132438Y-32658094D02*
X7084819Y-32562856D01*
X7084819Y-32562856D02*
X7084819Y-32324761D01*
X7084819Y-32324761D02*
X7132438Y-32229523D01*
X7132438Y-32229523D02*
X7180057Y-32181904D01*
X7180057Y-32181904D02*
X7275295Y-32134285D01*
X7275295Y-32134285D02*
X7370533Y-32134285D01*
X7370533Y-32134285D02*
X7513390Y-32181904D01*
X7513390Y-32181904D02*
X8084819Y-32753332D01*
X8084819Y-32753332D02*
X8084819Y-32134285D01*
%TO.C,R4*%
D11*
X40000000Y-18880000D02*
X40000000Y-19650000D01*
X40000000Y-26960000D02*
X40000000Y-26190000D01*
X38630000Y-19650000D02*
X41370000Y-19650000D01*
X41370000Y-26190000D01*
X38630000Y-26190000D01*
X38630000Y-19650000D01*
%TO.C,U1*%
X26160000Y-20670000D02*
X26160000Y-30950000D01*
X26160000Y-30950000D02*
X31460000Y-30950000D01*
X27810000Y-20670000D02*
X26160000Y-20670000D01*
X31460000Y-20670000D02*
X29810000Y-20670000D01*
X31460000Y-30950000D02*
X31460000Y-20670000D01*
X29810000Y-20670000D02*
G75*
G02*
X27810000Y-20670000I-1000000J0D01*
G01*
%TO.C,C1*%
X9880000Y-20630000D02*
X15120000Y-20630000D01*
X9880000Y-20967000D02*
X9880000Y-20630000D01*
X9880000Y-23370000D02*
X9880000Y-23033000D01*
X15120000Y-20630000D02*
X15120000Y-20967000D01*
X15120000Y-23033000D02*
X15120000Y-23370000D01*
X15120000Y-23370000D02*
X9880000Y-23370000D01*
%TO.C,R1*%
X10000000Y-6880000D02*
X10000000Y-7650000D01*
X10000000Y-14960000D02*
X10000000Y-14190000D01*
X8630000Y-7650000D02*
X11370000Y-7650000D01*
X11370000Y-14190000D01*
X8630000Y-14190000D01*
X8630000Y-7650000D01*
%TO.C,R3*%
X40000000Y-3880000D02*
X40000000Y-4650000D01*
X40000000Y-11960000D02*
X40000000Y-11190000D01*
X38630000Y-4650000D02*
X41370000Y-4650000D01*
X41370000Y-11190000D01*
X38630000Y-11190000D01*
X38630000Y-4650000D01*
%TO.C,R2*%
X10000000Y-28880000D02*
X10000000Y-29650000D01*
X10000000Y-36960000D02*
X10000000Y-36190000D01*
X8630000Y-29650000D02*
X11370000Y-29650000D01*
X11370000Y-36190000D01*
X8630000Y-36190000D01*
X8630000Y-29650000D01*
%TD*%
M02*
