%TF.GenerationSoftware,KiCad,Pcbnew,10.0.4*%
%TF.CreationDate,2026-09-17T18:26:34+05:30*%
%TF.ProjectId,opamp-divider,6f70616d-702d-4646-9976-696465722e6b,rev?*%
%TF.SameCoordinates,Original*%
%TF.FileFunction,Copper,L2,Bot*%
%TF.FilePolarity,Positive*%
%FSLAX46Y46*%
G04 Gerber Fmt 4.6, Leading zero omitted, Abs format (unit mm)*
G04 Created by KiCad (PCBNEW 10.0.4) date 2026-09-17 18:26:34*
%MOMM*%
%LPD*%
G01*
G04 APERTURE LIST*
G04 Aperture macros list*
%AMRoundRect*
0 Rectangle with rounded corners*
0 $1 Rounding radius*
0 $2 $3 $4 $5 $6 $7 $8 $9 X,Y pos of 4 corners*
0 Add a 4 corners polygon primitive as box body*
4,1,4,$2,$3,$4,$5,$6,$7,$8,$9,$2,$3,0*
0 Add four circle primitives for the rounded corners*
1,1,$1+$1,$2,$3*
1,1,$1+$1,$4,$5*
1,1,$1+$1,$6,$7*
1,1,$1+$1,$8,$9*
0 Add four rect primitives between the rounded corners*
20,1,$1+$1,$2,$3,$4,$5,0*
20,1,$1+$1,$4,$5,$6,$7,0*
20,1,$1+$1,$6,$7,$8,$9,0*
20,1,$1+$1,$8,$9,$2,$3,0*%
G04 Aperture macros list end*
%TA.AperFunction,ComponentPad*%
%ADD10C,1.600000*%
%TD*%
%TA.AperFunction,ComponentPad*%
%ADD11RoundRect,0.250000X-0.550000X-0.550000X0.550000X-0.550000X0.550000X0.550000X-0.550000X0.550000X0*%
%TD*%
%TA.AperFunction,ViaPad*%
%ADD12C,0.600000*%
%TD*%
%TA.AperFunction,Conductor*%
%ADD13C,0.200000*%
%TD*%
G04 APERTURE END LIST*
D10*
%TO.P,R4,1*%
%TO.N,VOUT*%
X40000000Y-28000000D03*
%TO.P,R4,2*%
%TO.N,FB*%
X40000000Y-17840000D03*
%TD*%
D11*
%TO.P,U1,1*%
%TO.N,N/C*%
X25000000Y-22000000D03*
D10*
%TO.P,U1,2*%
%TO.N,FB*%
X25000000Y-24540000D03*
%TO.P,U1,3*%
%TO.N,VIN_BIAS*%
X25000000Y-27080000D03*
%TO.P,U1,4*%
%TO.N,GND*%
X25000000Y-29620000D03*
%TO.P,U1,5*%
%TO.N,N/C*%
X32620000Y-29620000D03*
%TO.P,U1,6*%
%TO.N,VOUT*%
X32620000Y-27080000D03*
%TO.P,U1,7*%
%TO.N,VCC*%
X32620000Y-24540000D03*
%TO.P,U1,8*%
%TO.N,N/C*%
X32620000Y-22000000D03*
%TD*%
%TO.P,C1,1*%
%TO.N,VCC*%
X10000000Y-22000000D03*
%TO.P,C1,2*%
%TO.N,GND*%
X15000000Y-22000000D03*
%TD*%
%TO.P,R1,1*%
%TO.N,VCC*%
X10000000Y-16000000D03*
%TO.P,R1,2*%
%TO.N,VIN_BIAS*%
X10000000Y-5840000D03*
%TD*%
%TO.P,R3,1*%
%TO.N,FB*%
X40000000Y-13000000D03*
%TO.P,R3,2*%
%TO.N,GND*%
X40000000Y-2840000D03*
%TD*%
%TO.P,R2,1*%
%TO.N,VIN_BIAS*%
X10000000Y-38000000D03*
%TO.P,R2,2*%
%TO.N,GND*%
X10000000Y-27840000D03*
%TD*%
D12*
%TO.N,VIN_BIAS*%
X8876700Y-26737500D03*
%TD*%
%TO.N,VIN_BIAS*%
D13*
X7163300Y-26737500D02*
X24657500Y-26737500D01*
X7163300Y-26737500D02*
X8876700Y-26737500D01*
X24657500Y-26737500D02*
X25000000Y-27080000D01*
%TO.N,VCC*%
X31462500Y-25697500D02*
X32620000Y-24540000D01*
X10000000Y-22000000D02*
X13697500Y-25697500D01*
X13697500Y-25697500D02*
X31462500Y-25697500D01*
%TO.N,VOUT*%
X33540000Y-28000000D02*
X32620000Y-27080000D01*
X40000000Y-28000000D02*
X33540000Y-28000000D01*
%TO.N,GND*%
X10000000Y-27840000D02*
X23220000Y-27840000D01*
X23220000Y-27840000D02*
X25000000Y-29620000D01*
%TO.N,FB*%
X40000000Y-17840000D02*
X31700000Y-17840000D01*
X31700000Y-17840000D02*
X25000000Y-24540000D01*
%TD*%
M02*
